<svg width="399" height="402" viewBox="0 0 399 402" fill="none" xmlns="http://www.w3.org/2000/svg">
<g opacity="0.3">
<path d="M292.321 212.148L92.4323 327.554L92.309 327.58L92.3079 327.579V327.58L72.83 331.699C70.3509 331.26 67.9843 332.913 67.5441 335.392C67.1039 337.871 68.7577 340.238 71.2379 340.678L93.6059 335.948L180.833 386.308L168.162 388.988C165.682 388.548 163.316 390.202 162.876 392.682C162.436 395.161 164.09 397.527 166.57 397.967L191.788 392.634L198.969 396.78V396.847L245.037 369.348C244.912 370.471 244.873 371.605 244.937 372.751C245.903 390.003 268.428 402.771 295.247 401.269C322.066 399.766 343.023 384.564 342.057 367.312C341.169 351.443 322.033 339.376 298.099 338.712L398.954 281.386V273.766L399 273.739L292.321 212.148Z" fill="#828AA4"/>
</g>
<path d="M256.801 316.263L257.436 324.984C257.436 324.984 258.536 330.018 254.209 333.673C249.883 337.327 243.416 335.94 238.678 333.673C234.923 331.874 223.677 326.794 218.943 319.169C217.774 317.286 215.046 313.031 220.048 310.377C223.275 308.664 229.999 311.31 234.781 312.4C237.709 313.067 242.46 313.801 242.46 313.801C242.46 313.801 246.712 310.943 251.014 312.717C255.319 314.492 257.106 312.692 256.801 316.263Z" fill="#2F384F"/>
<path d="M238.603 307.358C238.603 307.358 237.513 316.262 245.925 318.133C254.335 320.003 260.206 317.611 261.193 312.88C261.805 309.947 264.646 282.407 266.373 266.986L244.296 249.849L238.603 307.358Z" fill="#4F5569"/>
<path d="M325.38 272.606C324.336 264.86 321.445 257.432 320.564 249.692L300.813 255.678C300.813 255.678 270.194 242.255 261.593 241.082C256.642 240.407 252.343 240.172 247.782 244.341C242.116 249.522 243.092 255.689 243.092 255.689L243.482 259.326L276.839 277.177C276.838 277.111 289.402 284.069 295.731 285.907C305.412 288.717 318.331 286.424 323.328 283.614C324.013 283.228 324.917 282.745 325.973 282.186C325.953 278.978 325.808 275.78 325.38 272.606Z" fill="#4F5569"/>
<path d="M227.141 334.23L230.074 343.356C230.074 343.356 231.174 348.391 226.847 352.045C222.521 355.7 216.054 354.313 211.316 352.045C207.561 350.247 196.315 345.166 191.581 337.542C190.411 335.658 187.684 331.404 192.686 328.749C195.913 327.037 202.637 329.682 207.419 330.773C210.347 331.439 215.097 332.175 215.097 332.175C215.097 332.175 214.482 327.896 218.785 329.671C223.089 331.444 224.445 333.242 227.141 334.23Z" fill="#3A4257"/>
<path d="M328.939 382.908C327.712 382.201 326.63 382.277 325.969 382.966L325.903 382.873L319.832 386.287L324.612 395.242L331.442 391.903C332.125 391.449 332.505 390.591 332.505 388.868C332.505 386.54 330.954 384.072 328.939 382.908Z" fill="#2F384F"/>
<path d="M325.91 392.871C325.91 395.199 324.276 396.142 322.261 394.978C320.246 393.815 318.611 390.986 318.611 388.657C318.611 386.331 320.246 385.386 322.261 386.55C324.276 387.713 325.91 390.545 325.91 392.871Z" fill="#2F384F"/>
<path d="M255.394 384.729C256.621 384.021 257.703 384.097 258.363 384.786L258.429 384.693L264.501 388.108L259.721 397.063L252.89 393.723C252.207 393.269 251.827 392.411 251.827 390.688C251.827 388.361 253.379 385.892 255.394 384.729Z" fill="#2F384F"/>
<path d="M258.423 394.693C258.423 397.019 260.058 397.962 262.073 396.798C264.088 395.636 265.722 392.806 265.722 390.479C265.722 388.152 264.088 387.209 262.073 388.372C260.058 389.535 258.423 392.366 258.423 394.693Z" fill="#2F384F"/>
<path d="M323.392 352.55C324.618 351.843 325.7 351.92 326.361 352.609L326.427 352.516L332.498 355.93L327.718 364.885L320.888 361.545C320.204 361.091 319.825 360.233 319.825 358.51C319.825 356.182 321.377 353.714 323.392 352.55Z" fill="#2F384F"/>
<path d="M326.42 362.515C326.42 364.842 328.055 365.785 330.07 364.621C332.085 363.458 333.719 360.629 333.719 358.301C333.719 355.975 332.085 355.03 330.07 356.194C328.055 357.357 326.42 360.188 326.42 362.515Z" fill="#2F384F"/>
<path d="M266.405 352.55C265.178 351.843 264.095 351.92 263.435 352.609L263.369 352.516L257.297 355.93L262.078 364.885L268.908 361.545C269.591 361.091 269.971 360.233 269.971 358.51C269.971 356.182 268.42 353.714 266.405 352.55Z" fill="#2F384F"/>
<path d="M263.376 362.515C263.376 364.842 261.742 365.785 259.727 364.621C257.711 363.458 256.077 360.629 256.077 358.301C256.077 355.975 257.711 355.03 259.727 356.194C261.742 357.357 263.376 360.188 263.376 362.515Z" fill="#2F384F"/>
<path d="M294.637 363.949L263.32 348.722C263.32 348.722 261.694 347.736 259.468 348.949C257.242 350.164 257.033 351.806 257.033 351.806V354.033L289.344 370.224L294.637 363.949Z" fill="#7E8391"/>
<path d="M290.69 365.164L323.829 348.721C323.829 348.721 325.278 347.735 327.504 348.948C329.73 350.163 329.761 351.806 329.761 351.806V354.033L295.807 371.437L290.69 365.164Z" fill="#7E8391"/>
<path d="M299.493 373.664H285.326V360.818C285.326 357.294 288.183 354.439 291.707 354.439H293.114C296.637 354.439 299.493 357.294 299.493 360.818V373.664Z" fill="#444B60"/>
<path d="M289.296 338.415V356.463C289.296 356.463 289.339 360.105 292.981 360.105C296.624 360.105 295.857 356.867 295.857 356.867V338.415H289.296Z" fill="#2F384F"/>
<path d="M285.468 321.887V338.886C285.468 338.886 287.851 341.921 292.102 341.921C296.352 341.921 299.138 338.886 299.138 338.886V319.458L285.468 321.887Z" fill="#444B60"/>
<path d="M210.33 327.057C210.33 327.057 209.271 335.707 217.441 337.525C225.613 339.342 231.316 337.019 232.277 332.423C232.873 329.573 235.632 302.814 237.31 287.832L215.859 271.183L210.33 327.057Z" fill="#6E7383"/>
<path d="M266.405 280.905C275.099 275.341 281.028 272.245 288.261 271.192C298.684 269.674 312.445 274.328 320.135 277.566C325.094 279.654 339.766 285.864 336.326 293.958C333.878 299.718 321.856 303.875 313.053 308.124C304.249 312.375 292.815 319.863 283.102 320.469C273.386 321.077 262.763 315.916 253.959 310.148C245.155 304.381 246.066 296.084 251.834 290.923C256.498 286.749 258.816 285.762 266.405 280.905Z" fill="#0076CC"/>
<path d="M326.566 257.953L273.454 274.049C273.454 274.049 242.832 260.629 234.232 259.456C229.281 258.781 224.982 258.544 220.422 262.713C214.755 267.894 215.731 274.063 215.731 274.063L216.122 277.697L249.476 295.549C249.476 295.483 262.042 302.441 268.371 304.278C278.052 307.089 290.971 304.796 295.967 301.986C300.964 299.175 317.2 291.369 323.445 284.498C329.692 277.627 326.566 257.953 326.566 257.953Z" fill="#6E7383"/>
<path d="M247.19 298.815V307.315C247.19 307.315 248.652 316.016 257.759 320.875C266.865 325.731 281.055 329.779 287.935 327.147C294.816 324.517 320.73 311.16 326.397 308.124C332.063 305.089 334.903 303.47 335.914 300.839C336.926 298.207 336.12 290.113 336.12 290.113C336.12 290.113 321.348 301.851 304.349 307.518C287.349 313.183 280.829 316.421 272.532 314.398C264.234 312.374 247.19 298.815 247.19 298.815Z" fill="#2F384F"/>
<path d="M284.315 325.528C281.797 321.498 283.458 317.051 286.178 313.573C280.913 315.058 276.959 315.478 272.532 314.398C264.236 312.374 247.19 298.816 247.19 298.816V307.314C247.19 307.314 248.652 316.016 257.759 320.874C266.209 325.38 279.032 329.186 286.332 327.611C285.622 326.998 284.965 326.308 284.315 325.528Z" fill="#444B60"/>
<path d="M255.478 386.414C255.478 386.414 252.592 381.759 257.044 380.139C261.496 378.521 286.262 366.176 286.262 366.176C286.262 366.176 291.6 366.986 291.6 369.009C291.6 371.033 292.208 373.461 292.208 373.461C292.208 373.461 265.292 386.009 262.662 387.426C260.03 388.842 257.804 387.831 255.478 386.414Z" fill="#7E8391"/>
<path d="M331.089 386.414C331.089 386.414 333.365 381.758 328.913 380.139C324.461 378.521 299.899 365.57 299.899 365.57C299.899 365.57 294.765 366.379 294.765 368.402V372.854C294.765 372.854 321.476 386.009 324.108 387.426C326.74 388.842 328.762 387.831 331.089 386.414Z" fill="#7E8391"/>
<path d="M167.426 397.661C164.908 397.661 162.866 395.618 162.866 393.1V290.065H171.984V393.1C171.984 395.618 169.944 397.661 167.426 397.661Z" fill="#8A93AB"/>
<path d="M167.172 290.066V397.636C167.257 397.64 167.338 397.662 167.425 397.662C169.944 397.662 171.985 395.619 171.985 393.101V290.066H167.172Z" fill="#606C8B"/>
<path d="M71.957 340.253C69.439 340.253 67.3979 338.211 67.3979 335.693V232.657H76.5161V335.693C76.5161 338.211 74.475 340.253 71.957 340.253Z" fill="#8A93AB"/>
<path d="M71.7041 232.657V340.227C71.7896 340.232 71.8707 340.253 71.9572 340.253C74.4752 340.253 76.5173 338.211 76.5173 335.693V232.657H71.7041Z" fill="#606C8B"/>
<path d="M348.798 288.228C346.28 288.228 344.238 286.186 344.238 283.668V180.632H353.359V283.668C353.359 286.186 351.316 288.228 348.798 288.228Z" fill="#8A93AB"/>
<path d="M348.544 180.633V288.203C348.629 288.208 348.711 288.229 348.797 288.229C351.316 288.229 353.357 286.187 353.357 283.669V180.633H348.544Z" fill="#606C8B"/>
<path d="M253.331 230.821C250.813 230.821 248.772 228.78 248.772 226.261V123.225H257.891V226.261C257.891 228.78 255.85 230.821 253.331 230.821Z" fill="#DFE1E8"/>
<path d="M253.078 123.226V230.796C253.163 230.8 253.242 230.822 253.329 230.822C255.849 230.822 257.889 228.78 257.889 226.262V123.226H253.078Z" fill="#CFD2DC"/>
<path d="M362.298 177.66L162.313 293.122L55.6353 231.531L252.955 119.786L362.298 177.66Z" fill="#606C8B"/>
<path d="M162.286 300.711V293.092L55.6074 231.502V239.121L162.286 300.711Z" fill="#425075"/>
<path d="M362.255 185.308V177.689L162.269 293.151V300.77L362.255 185.308Z" fill="#3E4966"/>
<path d="M258.48 183.205L190.655 223.046L162.118 208.11L162.788 214.088L191.008 226.533L258.718 187.299L258.48 183.205Z" fill="#606C8B"/>
<path d="M162.117 207.027L162.787 213.005L191.007 225.45L190.655 221.965L162.117 207.027Z" fill="#1F1A1A"/>
<path d="M232.101 167.381L258.503 182.246L190.655 221.964L162.117 207.027L232.101 167.381Z" fill="#262222"/>
<path d="M258.48 182.124L190.655 221.964L191.008 225.452L258.719 186.218L258.48 182.124Z" fill="#1F1A1A"/>
<path d="M171.826 207.577L169.244 206.095L171.943 204.531L174.525 206.015L171.826 207.577Z" fill="#606C8B"/>
<path d="M177.088 204.529L174.506 203.046L177.205 201.483L179.787 202.967L177.088 204.529Z" fill="#606C8B"/>
<path d="M180.461 202.574L177.879 201.091L180.578 199.528L183.159 201.012L180.461 202.574Z" fill="#606C8B"/>
<path d="M183.834 200.621L181.252 199.138L183.951 197.575L186.533 199.059L183.834 200.621Z" fill="#606C8B"/>
<path d="M189.095 197.572L186.513 196.089L189.212 194.526L191.794 196.009L189.095 197.572Z" fill="#606C8B"/>
<path d="M192.469 195.617L189.887 194.135L192.585 192.571L195.167 194.055L192.469 195.617Z" fill="#606C8B"/>
<path d="M195.843 193.664L193.261 192.181L195.959 190.618L198.541 192.102L195.843 193.664Z" fill="#606C8B"/>
<path d="M201.103 190.615L198.521 189.132L201.22 187.569L203.802 189.053L201.103 190.615Z" fill="#606C8B"/>
<path d="M204.477 188.661L201.895 187.178L204.593 185.615L207.173 187.099L204.477 188.661Z" fill="#606C8B"/>
<path d="M207.849 186.707L205.268 185.224L207.966 183.661L210.548 185.145L207.849 186.707Z" fill="#606C8B"/>
<path d="M213.246 183.58L210.664 182.097L213.363 180.534L215.945 182.017L213.246 183.58Z" fill="#606C8B"/>
<path d="M216.461 181.635L213.925 180.111L216.694 178.572L219.23 180.097L216.461 181.635Z" fill="#606C8B"/>
<path d="M219.993 179.672L217.411 178.189L220.11 176.626L222.692 178.11L219.993 179.672Z" fill="#606C8B"/>
<path d="M224.311 177.17L221.729 175.687L224.427 174.124L227.008 175.608L224.311 177.17Z" fill="#606C8B"/>
<path d="M227.683 175.215L225.102 173.733L227.8 172.17L230.382 173.654L227.683 175.215Z" fill="#606C8B"/>
<path d="M231.055 173.262L228.474 171.779L231.172 170.216L233.754 171.7L231.055 173.262Z" fill="#606C8B"/>
<path d="M235.833 176.006L233.251 174.523L235.949 172.96L238.531 174.444L235.833 176.006Z" fill="#606C8B"/>
<path d="M239.06 177.86L236.478 176.377L239.176 174.814L241.757 176.298L239.06 177.86Z" fill="#606C8B"/>
<path d="M232.459 177.961L229.877 176.478L232.576 174.915L235.157 176.399L232.459 177.961Z" fill="#606C8B"/>
<path d="M235.686 179.815L233.104 178.332L235.803 176.769L238.385 178.253L235.686 179.815Z" fill="#606C8B"/>
<path d="M229.086 179.914L226.504 178.431L229.203 176.868L231.785 178.352L229.086 179.914Z" fill="#606C8B"/>
<path d="M232.313 181.769L229.731 180.286L232.43 178.723L235.011 180.207L232.313 181.769Z" fill="#606C8B"/>
<path d="M248.612 183.349L246.03 181.866L248.727 180.303L251.309 181.786L248.612 183.349Z" fill="#606C8B"/>
<path d="M245.238 185.304L242.656 183.821L245.355 182.258L247.937 183.741L245.238 185.304Z" fill="#606C8B"/>
<path d="M241.865 187.257L239.283 185.774L241.981 184.211L244.563 185.695L241.865 187.257Z" fill="#606C8B"/>
<path d="M242.011 183.449L239.429 181.966L242.127 180.403L244.709 181.887L242.011 183.449Z" fill="#606C8B"/>
<path d="M220.316 184.996L217.734 183.513L220.433 181.95L223.015 183.434L220.316 184.996Z" fill="#606C8B"/>
<path d="M216.943 186.95L214.361 185.467L217.059 183.904L219.641 185.388L216.943 186.95Z" fill="#606C8B"/>
<path d="M213.571 188.903L210.988 187.42L213.686 185.858L216.268 187.342L213.571 188.903Z" fill="#606C8B"/>
<path d="M210.197 190.858L207.615 189.375L210.313 187.812L212.895 189.296L210.197 190.858Z" fill="#606C8B"/>
<path d="M206.824 192.811L204.242 191.328L206.941 189.766L209.523 191.249L206.824 192.811Z" fill="#606C8B"/>
<path d="M203.452 194.766L200.869 193.284L203.566 191.72L206.148 193.204L203.452 194.766Z" fill="#606C8B"/>
<path d="M200.078 196.72L197.496 195.237L200.195 193.674L202.777 195.157L200.078 196.72Z" fill="#606C8B"/>
<path d="M196.705 198.675L194.124 197.192L196.822 195.629L199.404 197.112L196.705 198.675Z" fill="#606C8B"/>
<path d="M193.332 200.629L190.75 199.146L193.449 197.583L196.03 199.067L193.332 200.629Z" fill="#606C8B"/>
<path d="M189.959 202.583L187.377 201.1L190.21 199.459L192.792 200.942L189.959 202.583Z" fill="#606C8B"/>
<path d="M186.586 204.537L184.004 203.054L186.838 201.414L189.42 202.896L186.586 204.537Z" fill="#606C8B"/>
<path d="M183.213 206.491L180.631 205.008L183.465 203.367L186.047 204.85L183.213 206.491Z" fill="#606C8B"/>
<path d="M179.975 208.367L177.393 206.885L180.092 205.321L182.674 206.805L179.975 208.367Z" fill="#606C8B"/>
<path d="M176.601 210.322L174.02 208.839L176.718 207.276L179.3 208.759L176.601 210.322Z" fill="#606C8B"/>
<path d="M184.821 209.283L182.239 207.8L184.937 206.238L187.519 207.722L184.821 209.283Z" fill="#606C8B"/>
<path d="M188.193 207.329L185.611 205.846L188.31 204.283L190.892 205.767L188.193 207.329Z" fill="#606C8B"/>
<path d="M191.567 205.375L188.985 203.893L191.684 202.33L194.265 203.814L191.567 205.375Z" fill="#606C8B"/>
<path d="M194.94 203.421L192.358 201.938L195.057 200.375L197.639 201.859L194.94 203.421Z" fill="#606C8B"/>
<path d="M198.313 201.467L195.731 199.984L198.43 198.421L201.011 199.905L198.313 201.467Z" fill="#606C8B"/>
<path d="M201.686 199.513L199.104 198.03L201.802 196.467L204.384 197.95L201.686 199.513Z" fill="#606C8B"/>
<path d="M205.059 197.559L202.477 196.076L205.176 194.513L207.758 195.996L205.059 197.559Z" fill="#606C8B"/>
<path d="M208.297 195.682L205.715 194.199L208.548 192.558L211.13 194.041L208.297 195.682Z" fill="#606C8B"/>
<path d="M211.67 193.729L209.088 192.246L211.921 190.605L214.503 192.088L211.67 193.729Z" fill="#606C8B"/>
<path d="M215.043 191.774L212.46 190.291L215.294 188.65L217.877 190.133L215.043 191.774Z" fill="#606C8B"/>
<path d="M218.417 189.82L215.834 188.337L218.533 186.774L221.114 188.258L218.417 189.82Z" fill="#606C8B"/>
<path d="M221.789 187.866L219.208 186.383L221.905 184.82L224.488 186.304L221.789 187.866Z" fill="#606C8B"/>
<path d="M222.722 191.049L220.011 189.493L222.71 187.93L225.42 189.487L222.722 191.049Z" fill="#606C8B"/>
<path d="M219.349 193.003L216.639 191.446L219.335 189.883L222.048 191.441L219.349 193.003Z" fill="#606C8B"/>
<path d="M215.977 194.957L213.266 193.401L215.964 191.838L218.674 193.395L215.977 194.957Z" fill="#606C8B"/>
<path d="M212.603 196.912L209.893 195.355L212.591 193.792L215.302 195.35L212.603 196.912Z" fill="#606C8B"/>
<path d="M209.231 198.865L206.52 197.309L209.219 195.746L211.929 197.303L209.231 198.865Z" fill="#606C8B"/>
<path d="M205.857 200.82L203.146 199.263L205.844 197.7L208.555 199.258L205.857 200.82Z" fill="#606C8B"/>
<path d="M202.485 202.774L199.773 201.217L202.473 199.653L205.183 201.211L202.485 202.774Z" fill="#606C8B"/>
<path d="M199.112 204.729L196.4 203.171L199.1 201.607L201.811 203.166L199.112 204.729Z" fill="#606C8B"/>
<path d="M195.737 206.683L193.027 205.126L195.861 203.484L198.571 205.041L195.737 206.683Z" fill="#606C8B"/>
<path d="M192.365 208.637L189.654 207.079L192.487 205.437L195.199 206.995L192.365 208.637Z" fill="#606C8B"/>
<path d="M188.992 210.591L186.282 209.034L189.115 207.392L191.826 208.949L188.992 210.591Z" fill="#606C8B"/>
<path d="M193.844 211.355L191.262 209.872L193.96 208.309L196.542 209.793L193.844 211.355Z" fill="#606C8B"/>
<path d="M197.217 209.4L194.635 207.917L197.334 206.354L199.916 207.837L197.217 209.4Z" fill="#606C8B"/>
<path d="M200.59 207.447L198.008 205.964L200.706 204.401L203.288 205.884L200.59 207.447Z" fill="#606C8B"/>
<path d="M203.962 205.492L201.38 204.009L204.079 202.446L206.661 203.93L203.962 205.492Z" fill="#606C8B"/>
<path d="M207.337 203.538L204.754 202.055L207.451 200.492L210.033 201.976L207.337 203.538Z" fill="#606C8B"/>
<path d="M210.709 201.583L208.127 200.1L210.826 198.537L213.408 200.021L210.709 201.583Z" fill="#606C8B"/>
<path d="M214.082 199.63L211.5 198.147L214.199 196.584L216.78 198.068L214.082 199.63Z" fill="#606C8B"/>
<path d="M217.456 197.675L214.874 196.193L217.571 194.63L220.153 196.114L217.456 197.675Z" fill="#606C8B"/>
<path d="M220.828 195.721L218.246 194.238L220.945 192.675L223.527 194.158L220.828 195.721Z" fill="#606C8B"/>
<path d="M224.2 193.766L221.619 192.285L224.317 190.721L226.899 192.205L224.2 193.766Z" fill="#606C8B"/>
<path d="M234.32 187.904L231.738 186.421L234.437 184.858L237.019 186.342L234.32 187.904Z" fill="#606C8B"/>
<path d="M235.794 190.776L233.212 189.292L237.664 186.713L240.246 188.196L235.794 190.776Z" fill="#606C8B"/>
<path d="M230.802 193.668L228.22 192.184L232.536 189.683L235.118 191.166L230.802 193.668Z" fill="#606C8B"/>
<path d="M225.81 196.559L223.228 195.076L227.545 192.574L230.127 194.057L225.81 196.559Z" fill="#606C8B"/>
<path d="M199.365 211.88L196.783 210.398L201.101 207.896L203.682 209.379L199.365 211.88Z" fill="#606C8B"/>
<path d="M194.372 214.773L191.791 213.289L196.107 210.788L198.689 212.271L194.372 214.773Z" fill="#606C8B"/>
<path d="M189.381 217.665L186.799 216.181L191.117 213.68L193.697 215.163L189.381 217.665Z" fill="#606C8B"/>
<path d="M227.575 191.813L224.992 190.331L230.93 186.892L233.511 188.375L227.575 191.813Z" fill="#606C8B"/>
<path d="M223.69 183.041L221.108 181.559L224.885 179.37L227.467 180.854L223.69 183.041Z" fill="#606C8B"/>
<path d="M179.828 212.176L177.247 210.693L181.564 208.191L184.146 209.674L179.828 212.176Z" fill="#606C8B"/>
<path d="M186.154 215.81L183.572 214.327L190.589 210.263L193.17 211.746L186.154 215.81Z" fill="#606C8B"/>
<path d="M183.055 214.03L180.345 212.473L185.742 209.346L188.453 210.904L183.055 214.03Z" fill="#606C8B"/>
<path d="M204.357 208.988L201.775 207.505L222.552 195.468L225.134 196.951L204.357 208.988Z" fill="#606C8B"/>
<path d="M225.968 189.021L223.385 187.537L225.225 186.472C225.396 186.375 225.364 186.274 225.334 186.154C225.328 186.134 225.203 186.138 225.202 186.128V186.117C225.199 186.06 225.272 186.024 225.206 185.981L222.549 184.414L228.08 181.225L233.776 184.488L225.968 189.021Z" fill="#606C8B"/>
<path d="M245.183 189.948C245.183 189.948 240.603 181.725 238.775 180.648C236.948 179.571 232.725 179.863 229.841 179.779C227.67 179.714 223.236 180.982 223.069 182.92C222.902 184.856 224.371 185.084 226.33 185.597C228.289 186.11 231.012 186.494 231.903 187.127C232.796 187.761 232.761 188.975 231.248 188.778C229.736 188.582 227.499 187.15 225.813 187.707C224.484 188.147 224.316 190.216 227.24 190.787C230.165 191.356 229.481 192.067 231.284 192.727C233.086 193.388 235.344 194.606 237.313 194.272C239.601 193.883 244.376 196.757 244.376 196.757L249.681 191.902L245.183 189.948Z" fill="#FCBDA4"/>
<path d="M306.032 183.871L283.036 191.132L252.389 185.769C252.389 185.769 246.165 183.703 241.968 189.158C238.714 194.623 240.476 196.281 240.476 196.281L281.079 211.22C281.079 211.22 286.886 214.096 296.115 211.958C304.615 209.989 330.45 214.724 330.45 214.724C330.45 214.724 333.026 204.286 327.235 193.36C321.128 181.839 309.558 182.01 306.032 183.871Z" fill="#537EDA"/>
<path d="M300.922 183.071C300.922 183.071 284.711 186.745 274.831 194.343C266.207 200.979 261.089 216.392 261.913 243.74C262.486 262.793 261.495 263.32 262.673 269.578C263.398 273.433 266.959 279.111 272.552 281.991C279.189 285.409 285.278 288.057 294.591 286.044C303.963 284.017 324.988 273.378 324.988 273.378C324.988 273.378 331.403 259.049 331.403 251.763C331.403 244.478 332.469 218.02 329.548 204.983C324.607 182.945 307.51 181.614 300.922 183.071Z" fill="#537EDA"/>
<path d="M303.037 174.419L304.685 189.477C304.685 189.477 304.137 195.63 295.443 197.162C286.528 198.733 284.878 192.686 284.878 192.686L285.1 189.082L283.951 180.792L303.037 174.419Z" fill="#FCBDA4"/>
<path d="M293.422 279.388C289.173 272.103 289.778 262.996 294.029 256.925C303.134 245.389 317.706 244.175 329.849 236.282C332.411 234.746 336.695 234.084 338.701 236.101C337.648 231.046 335.029 230.1 333.289 230.01C329.444 229.806 326.485 232.382 312.445 239.318C295.648 247.615 292.813 246.806 288.969 250.043C285.124 253.282 282.898 260.972 283.505 269.27C284.113 277.567 290.184 284.244 295.04 284.043C296.205 283.995 297.232 283.816 298.338 283.48C296.146 282.719 294.331 281.205 293.422 279.388Z" fill="#4D4D4D"/>
<path d="M329.85 236.282C317.707 244.175 303.136 245.389 294.03 256.925C289.779 262.995 289.173 272.102 293.422 279.388C294.331 281.204 296.146 282.719 298.338 283.48C301.844 282.417 306.164 279.76 318.315 274.53C327.634 270.52 332.584 267.047 335.313 261.984C337.264 258.36 337.994 254.03 338.754 247.615C339.373 242.39 339.244 238.703 338.702 236.101C336.695 234.084 332.411 234.745 329.85 236.282Z" fill="#333333"/>
<path d="M308.6 234.865C299.391 238.406 289.779 242.15 286.136 243.162C282.494 244.173 278.042 251.662 278.446 260.162C278.851 268.661 280.269 276.15 283.506 279.186C286.744 282.221 292.613 285.458 301.922 281.006C311.231 276.554 323.98 271.09 327.623 268.459C331.266 265.828 334.625 262.628 335.919 258.745C337.336 254.494 338.753 245.794 338.349 237.497C337.98 229.949 333.694 222.925 326.611 226.162C319.528 229.401 316.493 231.829 308.6 234.865Z" fill="#0076CC"/>
<path d="M288.969 250.043C292.814 246.806 295.648 247.615 312.445 239.318C326.486 232.382 329.444 229.806 333.29 230.01C335.924 230.147 340.575 232.234 338.753 247.615C337.993 254.031 337.264 258.36 335.314 261.984C332.585 267.048 327.633 270.521 318.314 274.531C302.326 281.412 299.898 283.84 295.04 284.043C290.184 284.244 284.113 277.567 283.505 269.269C282.898 260.972 285.124 253.282 288.969 250.043Z" fill="#2F384F"/>
<path d="M312.034 258.037L321.787 253.098C321.787 253.098 324.419 251.497 326.794 259.573C327.708 262.68 327.436 271.919 327.459 281.642C327.494 297.179 327.394 314.541 327.394 314.541L317.642 319.482C317.642 319.482 316.971 313.132 316.917 304.968C316.802 288.203 316.673 262.349 312.034 258.037Z" fill="#595F72"/>
<path d="M312.034 258.037L311.995 309.54L306.794 307.922V314.398L317.642 319.482V268.881C317.642 268.881 317.407 263.914 315.394 260.713C312.023 255.346 312.034 258.037 312.034 258.037Z" fill="#444B60"/>
<path d="M199.426 212.4L193.328 210.947C193.328 210.947 192.028 212.453 188.152 211.428C183.504 210.198 183.115 207.916 181.182 206.976C178.664 205.751 177.414 205.648 174.935 204.688C172.072 203.579 173.468 198.482 177.1 197.375C178.278 197.016 180.022 196.661 183.946 197.153C186.379 197.458 190.088 199.836 190.088 199.836C190.088 199.836 187.744 197.616 186.743 197.048C185.741 196.482 186.407 194.51 188.362 195.427C190.318 196.346 193.598 198.864 193.979 199.962C194.362 201.059 196.471 204.026 196.471 204.026L202.325 205.639L199.426 212.4Z" fill="#FCBDA4"/>
<path d="M268.886 201.122L233.319 216.464L204.368 202.182C204.368 202.182 198.764 198.644 193.889 205.157C191.396 208.487 192.99 212.303 192.99 212.303C192.99 212.303 217.439 230.182 226.214 233.748C230.554 235.513 235.296 236.399 244.769 236.378C255.319 236.354 264.07 233.257 271.32 230.296C276.324 228.253 283.163 221.085 282.05 211.529C280.909 201.728 275.136 199.198 268.886 201.122Z" fill="#537EDA"/>
<path d="M185.735 239.361L146.435 217.636C144.987 216.799 142.636 216.799 141.188 217.636L115.439 231.598C113.989 232.436 114.226 234.56 115.675 235.396L154.668 257.911C156.118 258.748 158.467 258.748 159.915 257.911L185.429 243.179C186.877 242.343 187.183 240.197 185.735 239.361Z" fill="#3C3939"/>
<path d="M185.43 242.099L159.917 256.831C158.468 257.668 156.118 257.668 154.668 256.831L115.676 234.315C114.227 233.478 113.99 231.354 115.44 230.518L141.189 216.555C142.637 215.718 144.987 215.718 146.435 216.555L185.735 238.281C187.184 239.117 186.878 241.263 185.43 242.099Z" fill="#17181A"/>
<path d="M185.428 241.017L159.916 255.749C158.466 256.586 156.117 256.586 154.668 255.749L115.674 233.234C114.226 232.397 114.226 231.04 115.674 230.204L141.188 215.474C142.636 214.636 144.986 214.636 146.434 215.474L185.428 237.988C186.876 238.825 186.876 240.181 185.428 241.017Z" fill="#262222"/>
<g opacity="0.5">
<path opacity="0.5" d="M155.665 253.294L118.3 231.718L143.813 216.988L181.178 238.562L155.665 253.294Z" fill="#0076CC"/>
</g>
<path d="M160.182 226.439L143.812 216.988L118.299 231.719L144.027 246.575C144.074 246.346 144.117 246.118 144.175 245.889C146.172 238.676 151.222 231.246 160.182 226.439Z" fill="#64B9E2"/>
<path d="M171.587 246.502C172.186 246.848 172.186 247.41 171.587 247.756C170.987 248.102 170.016 248.102 169.415 247.756C168.816 247.41 168.816 246.848 169.415 246.502C170.016 246.156 170.987 246.156 171.587 246.502Z" fill="#656B7C"/>
<path d="M149.416 186.051L149.417 186.171L149.437 186.183C149.528 186.546 149.804 186.895 150.286 187.173L165.359 195.876C165.98 196.235 166.802 196.401 167.615 196.385H167.617C167.986 196.376 168.352 196.333 168.698 196.249C168.735 196.239 168.768 196.226 168.805 196.215C168.938 196.18 169.072 196.143 169.198 196.094C169.36 196.031 169.516 195.96 169.658 195.876L210.629 172.219C210.922 172.051 211.133 171.855 211.283 171.647C211.299 171.623 211.315 171.601 211.33 171.576C211.405 171.457 211.465 171.335 211.494 171.21C211.498 171.191 211.492 171.171 211.496 171.153C211.514 171.054 211.518 170.967 211.518 170.902C211.518 170.64 211.471 167.79 211.471 167.79L209.16 168.888L195.557 161.034C194.369 160.349 192.444 160.349 191.257 161.034L160.99 178.51L152.359 183.494C152.344 183.477 152.33 183.456 152.313 183.44C151.507 182.633 149.393 183.203 149.393 183.203L149.414 185.824C149.406 185.9 149.407 185.975 149.416 186.051Z" fill="#606C8B"/>
<path d="M219.64 63.5689C219.64 63.5689 218.498 62.6193 217.739 62.1758C217.253 61.8924 216.915 61.7183 216.687 61.609C216.638 61.5777 216.582 61.5604 216.527 61.5366C216.382 61.4717 216.315 61.4479 216.315 61.4479L216.311 61.4533C215.905 61.3613 215.414 61.4511 214.883 61.7583L127.45 112.233C126.066 113.033 124.943 114.979 124.943 116.578L124.945 180.605C124.945 181.393 125.219 181.946 125.661 182.214L125.66 182.217C125.66 182.217 128.098 184.179 128.827 184.148C129.555 184.115 129.555 181.615 129.555 181.615L129.35 180.958L214.884 131.578C216.269 130.779 217.394 128.835 217.393 127.236L217.389 69.3135C217.453 69.2724 217.518 69.2291 217.581 69.1739C218.752 68.1291 219.64 63.5689 219.64 63.5689Z" fill="#515B75"/>
<path d="M217.391 76.503L217.39 69.3145C217.455 69.2734 217.518 69.2302 217.581 69.1739C218.753 68.1291 219.639 63.5689 219.639 63.5689C219.639 63.5689 218.498 62.6203 217.739 62.1758C217.253 61.8935 216.915 61.7183 216.687 61.609C216.637 61.5787 216.582 61.5593 216.528 61.5355C216.383 61.4716 216.315 61.4479 216.315 61.4479L216.311 61.4543C215.906 61.3624 215.414 61.4511 214.882 61.7594L127.449 112.233C126.769 112.626 126.152 113.299 125.7 114.068L136.014 120.882L217.327 76.5517C217.327 76.5517 217.353 76.5322 217.391 76.503Z" fill="#515B75"/>
<path d="M211.493 170.129C211.497 170.109 211.492 170.09 211.495 170.071C211.513 169.973 211.516 169.885 211.516 169.82C211.516 169.559 211.47 166.709 211.47 166.709L209.16 167.807L195.556 159.953C194.368 159.267 192.443 159.267 191.256 159.953L152.358 182.413C152.342 182.395 152.329 182.375 152.312 182.36C151.506 181.552 149.392 182.122 149.392 182.122L149.413 184.742C149.405 184.818 149.406 184.894 149.415 184.97V185.091L149.436 185.102C149.526 185.464 149.803 185.813 150.286 186.092L165.358 194.795C166.546 195.48 168.471 195.48 169.657 194.795L210.628 171.139C210.921 170.969 211.132 170.773 211.282 170.566C211.298 170.542 211.314 170.519 211.329 170.494C211.404 170.375 211.464 170.253 211.493 170.129Z" fill="#2D3039"/>
<path d="M211.47 166.708L209.158 167.809L195.555 159.953C194.367 159.268 192.444 159.268 191.256 159.953L160.989 177.428L167.615 186.618V195.303C168.357 195.287 169.092 195.122 169.658 194.794L210.628 171.138C210.92 170.969 211.131 170.773 211.281 170.564C211.298 170.542 211.314 170.518 211.329 170.494C211.404 170.375 211.464 170.253 211.493 170.129C211.497 170.109 211.491 170.09 211.494 170.07C211.512 169.973 211.516 169.885 211.516 169.819C211.516 169.559 211.47 166.708 211.47 166.708Z" fill="#4C5265"/>
<path d="M210.629 168.383L169.657 192.039C168.47 192.725 166.546 192.725 165.358 192.039L150.284 183.337C149.098 182.652 149.098 181.541 150.284 180.855L191.255 157.198C192.443 156.512 194.368 156.512 195.555 157.198L210.629 165.902C211.817 166.586 211.817 167.697 210.629 168.383Z" fill="#515B75"/>
<path d="M185.998 171.641L175.084 177.942L175.083 154.508L185.997 148.206L185.998 171.641Z" fill="#191B21"/>
<path d="M175.094 177.695L171.299 175.504V152.071L175.094 154.261V177.695Z" fill="#383C49"/>
<path d="M131.28 117.586L131.282 179.132L216.564 129.9L216.562 68.3541L131.28 117.586Z" fill="#57C7FB"/>
<path d="M216.632 129.849L131.354 179.089L130.637 178.676L215.915 129.436L216.632 129.849Z" fill="#F2F3F4"/>
<path d="M216.797 129.957L215.901 129.441L215.904 67.8954L216.799 68.4114L216.797 129.957Z" fill="#9EA5B8"/>
<path d="M220.144 65.0442C220.144 63.4445 219.022 62.7955 217.637 63.5948L130.204 114.071C128.82 114.87 127.697 116.815 127.697 118.415L127.699 182.443C127.699 184.043 128.823 184.69 130.207 183.891L217.639 133.415C219.024 132.616 220.148 130.671 220.147 129.071L220.144 65.0442ZM131.282 179.132L131.28 117.586L216.562 68.354L216.564 129.9L131.282 179.132Z" fill="#191B21"/>
<path d="M262.866 171.892C262.865 171.889 262.864 171.886 262.864 171.884C262.759 171.381 262.598 170.828 262.389 170.248C262.362 170.176 262.338 170.105 262.31 170.031C262.257 169.889 262.198 169.747 262.139 169.602C262.1 169.508 262.061 169.414 262.02 169.318C261.962 169.182 261.9 169.047 261.837 168.91C261.787 168.802 261.735 168.694 261.684 168.586C261.62 168.455 261.555 168.325 261.488 168.194C261.426 168.076 261.361 167.957 261.297 167.838C261.23 167.715 261.165 167.592 261.094 167.47C261.014 167.329 260.929 167.19 260.844 167.05C260.783 166.95 260.724 166.847 260.66 166.747C260.511 166.512 260.356 166.279 260.194 166.049C260.144 165.977 260.091 165.909 260.041 165.839C259.921 165.673 259.802 165.51 259.676 165.35C259.608 165.262 259.537 165.178 259.466 165.091C259.353 164.951 259.238 164.812 259.119 164.677C259.042 164.59 258.965 164.504 258.886 164.42C258.768 164.29 258.647 164.162 258.523 164.037C258.443 163.956 258.361 163.875 258.279 163.796C258.151 163.671 258.02 163.553 257.887 163.438C257.806 163.365 257.725 163.293 257.643 163.223C257.496 163.101 257.345 162.987 257.195 162.873C257.121 162.818 257.05 162.76 256.976 162.709C256.75 162.547 256.52 162.396 256.283 162.259C255.382 161.733 254.556 161.305 253.771 160.955C253.767 160.952 253.765 160.949 253.761 160.944C253.73 160.931 253.702 160.922 253.672 160.909C253.501 160.834 253.333 160.77 253.166 160.704C252.948 160.619 252.732 160.538 252.521 160.467C252.431 160.437 252.335 160.394 252.246 160.366C252.174 160.344 252.107 160.337 252.034 160.316C251.808 160.252 251.587 160.202 251.367 160.158C251.236 160.131 251.102 160.098 250.973 160.078C250.64 160.028 250.312 160 249.988 159.998C249.965 159.998 249.943 159.993 249.92 159.993C249.842 159.993 249.766 160.011 249.687 160.014C249.447 160.023 249.206 160.043 248.968 160.081C248.849 160.1 248.729 160.125 248.61 160.151C248.378 160.2 248.148 160.266 247.917 160.343C247.81 160.379 247.702 160.411 247.598 160.452C247.262 160.582 246.928 160.732 246.587 160.921C246.324 161.068 246.072 161.228 245.826 161.393C245.773 161.429 245.72 161.465 245.669 161.501C245.647 161.516 245.627 161.53 245.605 161.545C245.591 161.554 245.578 161.563 245.564 161.573C245.358 161.722 245.16 161.878 244.969 162.041C244.952 162.054 244.938 162.069 244.922 162.083C244.839 162.155 244.759 162.228 244.68 162.303L244.664 162.317C244.539 162.435 244.418 162.558 244.301 162.683C244.28 162.704 244.259 162.726 244.237 162.749C244.031 162.974 243.84 163.208 243.666 163.453C243.66 163.46 243.655 163.469 243.649 163.477C242.523 165.067 242.261 166.947 243.072 169.178C243.072 169.178 250.266 174.921 254.612 176.258C258.958 177.595 263.012 175.798 263.012 173.125C263.012 172.766 262.96 172.347 262.866 171.892Z" fill="#606C8B"/>
<path d="M242.581 168.673C242.581 168.673 249.936 174.314 254.282 175.652C258.629 176.989 262.683 175.193 262.683 172.518C262.683 169.843 259.966 163.992 255.954 161.652C251.942 159.312 249.267 158.644 246.258 160.315C243.249 161.986 241.244 164.995 242.581 168.673Z" fill="#36383F"/>
<path d="M246.258 160.315C243.901 161.624 242.168 163.757 242.166 166.385C242.182 166.435 242.193 166.481 242.211 166.531C242.211 166.531 249.702 172.277 254.127 173.637C258.08 174.854 261.785 173.524 262.535 171.286C261.926 168.337 259.428 163.68 255.954 161.653C251.942 159.313 249.266 158.644 246.258 160.315Z" fill="#454D61"/>
<path d="M246.258 160.315C244.846 161.099 243.661 162.182 242.936 163.487C243.884 163.967 244.794 164.362 245.603 164.611C249.555 165.827 253.26 164.495 254.01 162.258C254.282 161.234 254.032 160.983 253.432 160.339C250.723 159.135 248.589 159.019 246.258 160.315Z" fill="#36383F"/>
<path d="M249.601 160.565C250.745 161.248 251.423 162.585 251.137 162.756C250.851 162.927 249.693 162.511 248.55 161.827C247.408 161.144 246.712 160.45 246.999 160.279C247.284 160.108 248.458 159.881 249.601 160.565Z" fill="#646E86"/>
<path d="M263.211 151.62C263.211 151.62 264.595 167.284 265.853 172.356C266.998 176.972 270.958 185.943 277.927 187.055C283.721 187.979 289.464 183.369 295.234 177.367C301.005 171.365 302.921 169.802 303.142 165.648C303.362 161.495 306.47 141.161 306.47 141.161L263.211 151.62Z" fill="#FCBDA4"/>
<path d="M306.595 138.177C304.111 132.013 299.262 128.435 294.563 127.008C285.28 124.186 278.208 126.701 271.025 130.562C265.539 134.347 261.04 137.052 258.759 134.347C256.886 140.296 257.176 144.406 257.968 145.705C258.297 147.578 259.835 149.043 261.04 150.574C262.735 152.734 265.368 153.868 267.472 155.561C269.18 156.936 270.391 158.617 271.026 160.726C271.591 162.605 272.146 164.703 272.422 166.78L274.878 167.168C274.878 167.168 273.376 161.756 276.455 160.739C281.162 159.182 282.871 166.094 282.546 168.29C281.158 177.681 286.21 178.37 286.21 178.37C292.152 179.561 298.129 179.007 302.401 174.354C305.946 170.493 307.937 165.363 308.679 160.225C309.696 153.172 309.26 144.792 306.595 138.177Z" fill="#2F384F"/>
<g opacity="0.85">
<path opacity="0.85" d="M154.252 39.4303L74.0762 84.453V144.754L153.576 97.9733L154.252 39.4303Z" fill="#30384F"/>
</g>
<path d="M84.3278 91.4609L82.1948 92.6918V90.9482L84.3278 89.7173V91.4609Z" fill="white"/>
<path d="M115.497 73.4658L86.7021 90.0904V88.3468L115.497 71.7222V73.4658Z" fill="#F4D433"/>
<path d="M84.3278 95.5494L82.1948 96.7803V95.0367L84.3278 93.808V95.5494Z" fill="white"/>
<path d="M100.002 86.5005L86.7021 94.179V92.4354L100.002 84.758V86.5005Z" fill="#F4D433"/>
<path d="M84.3266 99.638L82.1958 100.869V99.1253L84.3266 97.8965V99.638Z" fill="white"/>
<path d="M106.883 86.6174L86.7021 98.2676V96.5251L106.883 84.8749V86.6174Z" fill="#F4D433"/>
<path d="M84.3266 103.727L82.1958 104.957V103.214L84.3266 101.985V103.727Z" fill="white"/>
<path d="M110.79 88.4496L86.7023 102.357L86.7012 100.614L110.79 86.7061V88.4496Z" fill="#F4D433"/>
<path d="M84.3278 109.674L82.1948 110.905V109.162L84.3278 107.933V109.674Z" fill="white"/>
<path d="M101.955 99.4985L86.7021 108.305V106.561L101.955 97.7549V99.4985Z" fill="#FF6369"/>
<path d="M84.3281 113.763L82.1973 114.994V113.25L84.3281 112.021V113.763Z" fill="white"/>
<path d="M114.698 96.2309L86.7021 112.393V110.65L114.698 94.4873V96.2309Z" fill="#FF6369"/>
<path d="M84.3278 117.853L82.1948 119.083V117.34L84.3278 116.109V117.853Z" fill="white"/>
<path d="M97.7379 110.11L86.7031 116.482V114.739L97.7379 108.368V110.11Z" fill="#FF6369"/>
<path d="M84.3278 121.941L82.1948 123.172V121.428L84.3278 120.198V121.941Z" fill="white"/>
<path d="M106.441 109.175L86.7031 120.57V118.826L106.441 107.432V109.175Z" fill="#FF6369"/>
<path d="M129.707 64.8497L131.331 63.9119V62.5826L129.707 63.5214V64.8497Z" fill="white"/>
<path d="M144.448 55.0101L133.144 61.5366V62.867L144.448 56.3405V55.0101Z" fill="white"/>
<path d="M129.707 67.968L131.331 67.0302V65.7009L129.707 66.6397V67.968Z" fill="white"/>
<path d="M138.364 61.6404L133.143 64.6549V65.9843L138.364 62.9698V61.6404Z" fill="white"/>
<path d="M129.707 71.0863L131.331 70.1485V68.8192L129.707 69.7581V71.0863Z" fill="white"/>
<path d="M141.067 63.1991L133.143 67.7733V69.1026L141.067 64.5284V63.1991Z" fill="white"/>
<path d="M129.707 74.2046L131.331 73.268V71.9376L129.707 72.8764V74.2046Z" fill="white"/>
<path d="M142.6 65.4326L133.143 70.8916V72.2209L142.6 66.7619V65.4326Z" fill="white"/>
<path d="M129.707 78.7409L131.331 77.8031V76.4738L129.707 77.4127V78.7409Z" fill="white"/>
<path d="M140.512 71.1739L133.144 75.4279V76.7572L140.512 72.5032V71.1739Z" fill="white"/>
<path d="M129.707 81.8593L131.331 80.9215V79.5922L129.707 80.531V81.8593Z" fill="white"/>
<path d="M133.144 78.5462V79.8756L146.668 72.0684V70.738L133.144 78.5462Z" fill="white"/>
<path d="M129.708 84.9776L131.332 84.0398V82.7105L129.708 83.6494V84.9776Z" fill="white"/>
<path d="M138.474 78.5873L133.144 81.6646V82.9939L138.474 79.9167V78.5873Z" fill="white"/>
<path d="M129.708 88.0959L131.332 87.1582V85.8289L129.708 86.7677V88.0959Z" fill="white"/>
<path d="M133.143 86.1122L142.677 80.6078V79.2785L133.143 84.7829V86.1122Z" fill="white"/>
<path d="M187.221 22.0264C186.371 23.5039 185.847 25.1674 185.847 26.6687V52.4417C185.847 55.454 192.041 59.6983 194.65 58.1916L215.055 43.3658C216.387 42.5967 217.588 41.2631 218.447 39.7434C208.803 34.2812 197.408 26.6655 187.221 22.0264Z" fill="#F4D433"/>
<path d="M215.056 43.3647L194.649 58.1916C192.04 59.6983 185.847 55.4551 185.847 52.4417V26.6687C185.847 23.6564 187.961 19.9929 190.57 18.4862L212.891 5.59865C215.499 4.09302 222.01 7.18864 222.038 9.86674L219.779 35.1833C219.779 38.1956 217.666 41.858 215.056 43.3647Z" fill="#FAECA7"/>
<path d="M187.221 22.0264C186.371 23.5039 185.847 25.1674 185.847 26.6687V52.4417C185.847 55.454 192.041 59.6983 194.65 58.1916L215.055 43.3658C216.387 42.5967 217.588 41.2631 218.447 39.7434C208.803 34.2812 197.408 26.6655 187.221 22.0264Z" fill="#F4D433"/>
<path d="M187.221 22.0275C186.371 23.505 185.847 25.1674 185.847 26.6687V52.4417C185.847 55.454 192.041 59.6994 194.65 58.1927L215.055 43.3658C216.387 42.5968 217.588 41.2642 218.447 39.7445C208.803 34.2823 197.408 26.6666 187.221 22.0275Z" fill="#F9E78F"/>
<path d="M217.562 45.0358L195.242 57.9213C192.633 59.428 190.516 58.2068 190.516 55.1934V29.4204C190.516 26.4081 192.632 22.7446 195.241 21.2379L217.561 8.35141C220.17 6.84579 222.285 8.06694 222.285 11.0793L222.286 36.8533C222.286 39.8657 220.172 43.5291 217.562 45.0358Z" fill="#F4D433"/>
<path d="M222.285 17.9551V11.0782C222.285 8.06583 220.169 6.84359 217.56 8.3503L195.24 21.2368C192.631 22.7435 190.515 26.4059 190.515 29.4193L190.516 47.6209C199.475 34.4197 210.576 23.7245 222.285 17.9551Z" fill="#FEE66E"/>
<path d="M203.999 31.0223L198.05 38.8641L204.27 39.1345" stroke="#544E15" stroke-width="1.5"/>
<path d="M209.407 24.9382L205.622 39.1345" stroke="#544E15" stroke-width="1.5"/>
<path d="M210.624 27.507L216.708 27.7774L210.759 35.0784" stroke="#544E15" stroke-width="1.5"/>
<path d="M68.2523 76.2362L47.8452 91.0632C45.2364 92.5699 39.043 88.3266 39.043 85.3132V59.5402C39.043 56.5279 41.1565 52.8634 43.7664 51.3577L66.0869 38.4702C68.6957 36.9645 75.205 40.0602 75.2342 42.7383L72.9768 68.0548C72.9768 71.0671 70.8622 74.7295 68.2523 76.2362Z" fill="#B3EBFF"/>
<path d="M40.4178 54.8989C39.5677 56.3764 39.042 58.0389 39.042 59.5402V85.3132C39.042 88.3255 45.2365 92.5698 47.8453 91.0642L68.2513 76.2372C69.5828 75.4682 70.7845 74.1356 71.6433 72.616C61.9984 67.1538 50.6057 59.538 40.4178 54.8989Z" fill="#3EA9F5"/>
<path d="M40.4178 54.8989C39.5677 56.3764 39.042 58.0389 39.042 59.5402V85.3132C39.042 88.3255 45.2365 92.5698 47.8453 91.0642L68.2513 76.2372C69.5828 75.4682 70.7845 74.1356 71.6433 72.616C61.9984 67.1538 50.6057 59.538 40.4178 54.8989Z" fill="#3EA9F5"/>
<path d="M40.4177 54.8989C39.5676 56.3764 39.043 58.0389 39.043 59.5402V85.3132C39.043 88.3255 45.2374 92.5698 47.8463 91.0642L68.2523 76.2372C69.5838 75.4682 70.7855 74.1357 71.6443 72.616C61.9994 67.1538 50.6056 59.538 40.4177 54.8989Z" fill="#95CFF9"/>
<path d="M70.7576 77.9074L48.4361 90.7928C45.8272 92.2995 43.7115 91.0783 43.7115 88.0649L43.7104 62.2919C43.7104 59.2785 45.8261 55.6151 48.4361 54.1094L70.7565 41.2229C73.3654 39.7173 75.4811 40.9385 75.4811 43.9508L75.4821 69.7238C75.4821 72.7372 73.3676 76.4007 70.7576 77.9074Z" fill="#3EA9F5"/>
<path d="M75.4809 50.8277V43.9518C75.4809 40.9384 73.3653 39.7173 70.7564 41.224L48.436 54.1094C45.826 55.615 43.7114 59.2796 43.7114 62.2919V80.4946C52.6716 67.2933 63.7713 56.5971 75.4809 50.8277Z" fill="#7AC7FF"/>
<path d="M48.3979 78.0523L48.2627 67.3712C48.2627 67.3712 52.8715 65.6244 53.13 67.7768C53.5356 71.1569 51.3724 72.3737 48.5331 72.6441" stroke="white" stroke-width="1.5"/>
<path d="M66.7856 66.6952L66.6504 56.0141C66.6504 56.0141 71.2592 54.2673 71.5177 56.4197C71.9233 59.7998 69.7601 61.0166 66.9208 61.287" stroke="white" stroke-width="1.5"/>
<path d="M56.5103 62.3687V73.6576" stroke="white" stroke-width="1.5"/>
<path d="M62.7975 63.7878L56.7134 67.6416" stroke="white" stroke-width="1.5"/>
<path d="M62.8647 58.8534V70.5479" stroke="white" stroke-width="1.5"/>
<path d="M145.646 38.9278L125.241 53.7547C122.631 55.2614 116.437 51.0182 116.437 48.0048V22.2318C116.437 19.2194 118.552 15.5549 121.16 14.0493L143.481 1.1617C146.09 -0.343928 152.6 2.75169 152.628 5.42979L150.371 30.7463C150.371 33.7587 148.256 37.421 145.646 38.9278Z" fill="#FFBCBE"/>
<path d="M117.812 17.5905C116.963 19.068 116.437 20.7305 116.437 22.2318L116.438 48.0048C116.438 51.0171 122.631 55.2614 125.241 53.7558L145.646 38.9288C146.978 38.1598 148.179 36.8272 149.038 35.3076C139.395 29.8453 128 22.2296 117.812 17.5905Z" fill="#FF6369"/>
<path d="M117.812 17.5905C116.963 19.068 116.437 20.7305 116.437 22.2318L116.438 48.0048C116.438 51.0171 122.631 55.2614 125.241 53.7558L145.646 38.9288C146.978 38.1598 148.179 36.8272 149.038 35.3076C139.395 29.8453 128 22.2296 117.812 17.5905Z" fill="#FFA9AC"/>
<path d="M148.153 40.5989L125.832 53.4843C123.222 54.991 121.106 53.7699 121.106 50.7564V24.9835C121.106 21.97 123.221 18.3066 125.831 16.801L148.151 3.91446C150.76 2.40884 152.876 3.62999 152.876 6.64232L152.877 32.4153C152.877 35.4287 150.761 39.0922 148.153 40.5989Z" fill="#FF7B7F"/>
<path d="M152.876 13.5193L152.875 6.64342C152.875 3.63001 150.759 2.40885 148.15 3.91556L125.83 16.801C123.221 18.3066 121.105 21.9711 121.105 24.9835V43.1862C130.066 29.9849 141.165 19.2887 152.876 13.5193Z" fill="#FF9599"/>
<path d="M135.074 23.4378L135.278 31.0762C135.278 31.0762 135.404 33.0221 134.835 34.2681C134.338 35.3584 132.472 35.9468 131.694 35.8765" stroke="white" stroke-width="1.5"/>
<path d="M142.579 19.6521C142.579 19.6521 138.725 21.4097 138.928 23.9786C139.132 26.5475 143.052 23.7071 143.39 26.2089C143.521 27.1759 142.958 28.688 142.048 29.6009C140.605 31.0492 138.294 31.576 138.252 31.617" stroke="white" stroke-width="1.5"/>
<path d="M1.37475 210.214C0.524588 211.69 0 213.353 0 214.855V240.627C0 243.64 6.19339 247.885 8.80227 246.378L29.2093 231.551C30.5408 230.782 31.7425 229.451 32.6013 227.931C22.9575 222.469 11.5626 214.853 1.37475 210.214Z" fill="#F4D433"/>
<path d="M29.2093 231.551L8.80227 246.378C6.19339 247.885 0 243.642 0 240.628V214.855C0 211.843 2.1135 208.179 4.72346 206.673L27.0439 193.785C29.6528 192.279 36.162 195.375 36.1912 198.053L33.9339 223.37C33.9339 226.382 31.8193 230.044 29.2093 231.551Z" fill="#FAECA7"/>
<path d="M1.37475 210.214C0.524588 211.69 0 213.353 0 214.855V240.627C0 243.64 6.19339 247.885 8.80227 246.378L29.2093 231.551C30.5408 230.782 31.7425 229.451 32.6013 227.931C22.9575 222.469 11.5626 214.853 1.37475 210.214Z" fill="#F4D433"/>
<path d="M1.37475 210.214C0.524588 211.69 0 213.353 0 214.855V240.627C0 243.64 6.19447 247.885 8.80336 246.378L29.2093 231.551C30.5408 230.782 31.7425 229.451 32.6013 227.931C22.9575 222.469 11.5626 214.853 1.37475 210.214Z" fill="#F9E78F"/>
<path d="M31.7156 233.221L9.39408 246.107C6.7852 247.613 4.66954 246.392 4.66954 243.379L4.66846 217.606C4.66846 214.593 6.7852 210.929 9.39408 209.423L31.7145 196.537C34.3234 195.031 36.4391 196.252 36.4391 199.265L36.4401 225.039C36.4401 228.051 34.3256 231.714 31.7156 233.221Z" fill="#F4D433"/>
<path d="M36.4387 206.142L36.4376 199.266C36.4376 196.252 34.3219 195.031 31.7131 196.538L9.39262 209.423C6.78374 210.93 4.66699 214.593 4.66699 217.607L4.66807 235.808C13.6272 222.607 24.729 211.911 36.4387 206.142Z" fill="#FEE66D"/>
<path d="M9.81689 221.613L16.8475 229.185" stroke="#544E15" stroke-width="1.5"/>
<path d="M16.3067 218.368L9.95215 233.376" stroke="#544E15" stroke-width="1.5"/>
<path d="M18.7402 227.697L19.0106 216.746L23.0667 224.047L26.7172 212.825L27.5284 222.695" stroke="#544E15" stroke-width="1.5"/>
<path d="M29.8271 210.932V221.072L33.8832 218.368" stroke="#544E15" stroke-width="1.5"/>
<path d="M116.514 180.044L40.8051 224.731L39.8933 224.277L39.8911 168.982L116.511 124.749L117.405 125.206L116.514 180.044Z" fill="#74C1F7"/>
<path d="M117.424 180.491L40.8039 224.724L40.8018 169.43L117.422 125.197L117.424 180.491Z" fill="white"/>
<path d="M117.422 130.529L40.8018 174.763V169.43L117.422 125.196V130.529Z" fill="#3EA9F5"/>
<path d="M77.6454 162.137L47.8076 179.363V178.173L77.6454 160.947V162.137Z" fill="#888D9A"/>
<path d="M77.6454 167.266L47.8076 184.492V183.302L77.6454 166.076V167.266Z" fill="#888D9A"/>
<path d="M77.6454 172.395L47.8076 189.621V188.431L77.6454 171.205V172.395Z" fill="#888D9A"/>
<path d="M77.6463 177.525L47.8086 194.751V193.561L77.6463 176.335V177.525Z" fill="#888D9A"/>
<path d="M77.6463 182.654L47.8086 199.88V198.69L77.6463 181.464V182.654Z" fill="#888D9A"/>
<path d="M110.77 175.539L85.7272 189.996L85.7261 154.928L110.769 140.471L110.77 175.539Z" fill="#A8D8FA"/>
<path d="M77.6463 187.784L47.8086 205.01V203.821L77.6463 186.595V187.784Z" fill="#888D9A"/>
<path d="M284.275 116.482L208.566 161.167L207.655 160.715L207.652 105.42L284.273 61.1879L285.166 61.6432L284.275 116.482Z" fill="#444B60"/>
<g opacity="0.8">
<path opacity="0.8" d="M285.185 116.938L208.565 161.171L208.563 105.876L285.183 61.6432L285.185 116.938Z" fill="#2F384F"/>
</g>
<path d="M215.757 111.925L213.624 113.156V111.412L215.757 110.183V111.925Z" fill="white"/>
<path d="M246.927 93.9308L218.132 110.554V108.811L246.927 92.1883V93.9308Z" fill="#3EA9F5"/>
<path d="M215.757 116.013L213.624 117.244V115.501L215.757 114.272V116.013Z" fill="white"/>
<path d="M231.431 106.966L218.132 114.643V112.899L231.431 105.222V106.966Z" fill="#3EA9F5"/>
<path d="M215.756 120.103L213.625 121.334V119.59L215.756 118.359V120.103Z" fill="white"/>
<path d="M238.313 107.08L218.132 118.731V116.988L238.313 105.337V107.08Z" fill="#3EA9F5"/>
<path d="M215.758 124.192L213.625 125.422V123.679L215.756 122.448L215.758 124.192Z" fill="white"/>
<path d="M242.221 108.915L218.133 122.82L218.132 121.078L242.221 107.171V108.915Z" fill="#3EA9F5"/>
<path d="M215.758 130.139L213.625 131.37V129.627L215.758 128.396V130.139Z" fill="white"/>
<path d="M233.385 119.962L218.132 128.768V127.024L233.385 118.22V119.962Z" fill="#F4D433"/>
<path d="M215.758 134.228L213.625 135.459V133.715L215.758 132.484V134.228Z" fill="white"/>
<path d="M246.128 116.695L218.132 132.856V131.114L246.128 114.951V116.695Z" fill="#F4D433"/>
<path d="M215.758 138.316L213.625 139.547V137.804L215.758 136.573V138.316Z" fill="white"/>
<path d="M229.167 130.575L218.133 136.946V135.204L229.167 128.832V130.575Z" fill="#F4D433"/>
<path d="M215.758 142.406L213.625 143.637V141.893L215.758 140.663V142.406Z" fill="white"/>
<path d="M237.87 129.64L218.132 141.035V139.291L237.87 127.897V129.64Z" fill="#F4D433"/>
<path d="M261.137 85.3135L262.761 84.3758V83.0464L261.137 83.9853V85.3135Z" fill="white"/>
<path d="M275.877 75.4751L264.573 82.0005V83.3299L275.877 76.8044V75.4751Z" fill="white"/>
<path d="M261.137 88.4319L262.761 87.4941V86.1648L261.137 87.1036V88.4319Z" fill="white"/>
<path d="M269.793 82.1055L264.573 85.12V86.4493L269.793 83.4348V82.1055Z" fill="white"/>
<path d="M261.137 91.5513L262.761 90.6136V89.2842L261.137 90.2231V91.5513Z" fill="white"/>
<path d="M272.496 83.6641L264.574 88.2383V89.5676L272.496 84.9934V83.6641Z" fill="white"/>
<path d="M261.137 94.6685L262.761 93.7307V92.4014L261.137 93.3403V94.6685Z" fill="white"/>
<path d="M274.03 85.8965L264.574 91.3555V92.6848L274.03 87.2259V85.8965Z" fill="white"/>
<path d="M261.137 99.2049L262.761 98.2682V96.9378L261.137 97.8767V99.2049Z" fill="white"/>
<path d="M271.942 91.6378L264.574 95.8919V97.2212L271.942 92.9671V91.6378Z" fill="white"/>
<path d="M261.137 102.323L262.761 101.385V100.056L261.137 100.995V102.323Z" fill="white"/>
<path d="M264.573 99.0102V100.339L278.097 92.5323V91.2019L264.573 99.0102Z" fill="white"/>
<path d="M261.137 105.442L262.761 104.505V103.174L261.137 104.113V105.442Z" fill="white"/>
<path d="M269.904 99.0513L264.572 102.128V103.458L269.904 100.381V99.0513Z" fill="white"/>
<path d="M261.137 108.56L262.761 107.622V106.293L261.137 107.232V108.56Z" fill="white"/>
<path d="M264.574 106.576L274.108 101.072V99.7424L264.574 105.247V106.576Z" fill="white"/>
<path d="M43.8192 144.906L23.4121 159.733C20.8033 161.239 14.6099 156.996 14.6099 153.983V128.21C14.6099 125.197 16.7234 121.534 19.3333 120.027L41.6538 107.14C44.2626 105.634 50.7719 108.73 50.8011 111.408L48.5437 136.724C48.5437 139.737 46.4281 143.399 43.8192 144.906Z" fill="#FFBCBE"/>
<path d="M15.9846 123.569C15.1345 125.046 14.6099 126.709 14.6099 128.21V153.983C14.6099 156.995 20.8043 161.239 23.4132 159.734L43.8192 144.907C45.1507 144.138 46.3513 142.805 47.2101 141.286C37.5663 135.823 26.1724 128.208 15.9846 123.569Z" fill="#FF6369"/>
<path d="M15.9846 123.569C15.1345 125.046 14.6099 126.709 14.6099 128.21V153.983C14.6099 156.995 20.8043 161.239 23.4132 159.734L43.8192 144.907C45.1507 144.138 46.3513 142.805 47.2101 141.286C37.5663 135.823 26.1724 128.208 15.9846 123.569Z" fill="#FFA9AC"/>
<path d="M46.3244 146.577L24.0039 159.462C21.3951 160.969 19.2794 159.748 19.2794 156.734L19.2783 130.961C19.2783 127.948 21.3929 124.285 24.0029 122.779L46.3233 109.892C48.9322 108.387 51.0478 109.608 51.0478 112.62L51.0489 138.394C51.0489 141.407 48.9344 145.07 46.3244 146.577Z" fill="#FF7B7F"/>
<path d="M51.0485 119.496V112.619C51.0475 109.607 48.9329 108.387 46.3229 109.892L24.0025 122.778C21.3936 124.285 19.2769 127.947 19.2769 130.96L19.2779 149.163C28.2381 135.961 39.3389 125.265 51.0485 119.496Z" fill="#FF9CA7"/>
<path d="M30.6599 132.828C30.6599 132.828 24.0955 135.983 25.0463 142.171C25.5222 145.267 31.2007 142.969 31.2007 142.969" stroke="white" stroke-width="1.5"/>
<path d="M35.7974 131.747L35.9326 140.4" stroke="white" stroke-width="1.5"/>
<path d="M31.8765 138.642L38.907 134.316" stroke="white" stroke-width="1.5"/>
<path d="M40.665 133.369L47.6956 129.448" stroke="white" stroke-width="1.5"/>
<path d="M44.0449 127.15L44.3153 135.803" stroke="white" stroke-width="1.5"/>
<path d="M268.137 91.4892L247.731 106.316C245.121 107.823 238.928 103.58 238.928 100.566V74.7932C238.928 71.7798 241.041 68.1163 243.651 66.6107L265.972 53.7231C268.581 52.2175 275.091 55.3131 275.119 57.9912L272.861 83.3067C272.861 86.3201 270.747 89.9824 268.137 91.4892Z" fill="#B3EBFF"/>
<path d="M240.302 70.1519C239.452 71.6294 238.928 73.2919 238.928 74.7932V100.566C238.928 103.578 245.121 107.823 247.731 106.317L268.136 91.4902C269.469 90.7212 270.669 89.3886 271.528 87.869C261.884 82.4067 250.49 74.791 240.302 70.1519Z" fill="#3EA9F5"/>
<path d="M240.302 70.1519C239.452 71.6294 238.928 73.2919 238.928 74.7932V100.566C238.928 103.578 245.121 107.823 247.731 106.317L268.136 91.4902C269.469 90.7212 270.669 89.3886 271.528 87.869C261.884 82.4067 250.49 74.791 240.302 70.1519Z" fill="#3EA9F5"/>
<path d="M240.302 70.1519C239.452 71.6294 238.928 73.2919 238.928 74.7932V100.566C238.928 103.578 245.121 107.823 247.731 106.317L268.136 91.4902C269.469 90.7212 270.669 89.3886 271.528 87.869C261.884 82.4067 250.49 74.791 240.302 70.1519Z" fill="#95CFF9"/>
<path d="M270.643 93.1603L248.322 106.046C245.713 107.552 243.597 106.33 243.597 103.318V77.5449C243.597 74.5315 245.711 70.868 248.321 69.3624L270.642 56.4759C273.251 54.9702 275.366 56.1914 275.366 59.2037L275.367 84.9767C275.367 87.9901 273.253 91.6536 270.643 93.1603Z" fill="#3EA9F5"/>
<path d="M275.367 66.0796V59.2026C275.367 56.1903 273.25 54.9702 270.641 56.4758L248.322 69.3613C245.712 70.868 243.596 74.5303 243.596 77.5438L243.597 95.7454C252.557 82.5441 263.657 71.849 275.367 66.0796Z" fill="#79C7FF"/>
<path d="M248.89 94.0321L248.754 83.3511C248.754 83.3511 253.363 81.6043 253.622 83.7567C254.027 87.1368 251.864 88.3536 249.025 88.624" stroke="white" stroke-width="1.5"/>
<path d="M267.277 82.675L267.142 71.994C267.142 71.994 271.751 70.2471 272.009 72.3996C272.415 75.7797 270.252 76.9965 267.412 77.2669" stroke="white" stroke-width="1.5"/>
<path d="M257.002 78.3485V89.6374" stroke="white" stroke-width="1.5"/>
<path d="M263.289 79.7676L257.205 83.6215" stroke="white" stroke-width="1.5"/>
<path d="M263.356 74.8333V86.5278" stroke="white" stroke-width="1.5"/>
</svg>
