<svg width="385" height="541" viewBox="0 0 385 541" fill="none" xmlns="http://www.w3.org/2000/svg">
<path fill-rule="evenodd" clip-rule="evenodd" d="M352.854 383.742H360.506V43.812H352.854V383.742Z" fill="#5E7A97"/>
<path fill-rule="evenodd" clip-rule="evenodd" d="M274.228 52.4631L213.669 32.4196C211.14 31.5825 209.755 28.8306 210.594 26.3049L213.615 17.2062C214.454 14.6806 217.21 13.2992 219.739 14.1362L280.298 34.1798C282.828 35.0169 284.212 37.7688 283.373 40.2944L280.352 49.3931C279.514 51.9188 276.758 53.3002 274.228 52.4631Z" fill="#A1B8CD"/>
<path fill-rule="evenodd" clip-rule="evenodd" d="M338.537 509.773H374.501L368.717 397.113H346.082L338.537 509.773Z" fill="#2F3E51"/>
<path fill-rule="evenodd" clip-rule="evenodd" d="M348.23 418.123H365.129V379.575H348.23V418.123Z" fill="#2F3E51"/>
<path fill-rule="evenodd" clip-rule="evenodd" d="M349.649 51.9384H363.712V35.5938H349.649V51.9384Z" fill="#2F3E51"/>
<path d="M253.697 25.5391C253.697 25.5391 356.68 48.2734 356.68 103.531" stroke="#5E7A97" stroke-width="9.00938" stroke-linejoin="bevel"/>
<path fill-rule="evenodd" clip-rule="evenodd" d="M280.99 46.3164L214.601 24.3432C208.66 22.3772 205.411 15.9145 207.38 9.98267L207.976 8.18623C209.946 2.25445 216.418 -0.990311 222.36 0.976125L288.748 22.9488C294.689 24.9153 297.939 31.3776 295.969 37.3098L295.373 39.1063C293.403 45.0381 286.931 48.2828 280.99 46.3164Z" fill="#2F3E51"/>
<ellipse rx="169.256" ry="24.6101" transform="matrix(-1 0 0 1 205.244 511.211)" fill="#212121"/>
<path fill-rule="evenodd" clip-rule="evenodd" d="M188.543 491.391L188.398 478.932L204.478 470.84C203.956 481.22 205.044 486.131 206.004 490.462C206.873 494.383 207.637 497.829 207.005 504.431C207.005 504.431 190.098 508.912 174.562 508.449C157.712 507.946 155.951 504.431 155.951 504.431C155.951 491.103 188.543 491.391 188.543 491.391ZM259.902 491.877L259.757 477.882L270.24 486.41L278.675 491.102C281.578 494.603 282.184 496.679 281.699 500.915C281.699 500.915 267.571 507.8 255.04 508.951C242.509 510.101 239.447 506.188 239.447 506.188C239.447 495.139 259.902 491.877 259.902 491.877Z" fill="#131317"/>
<path fill-rule="evenodd" clip-rule="evenodd" d="M259.757 477.882L275.836 473.055L278.676 491.102L259.902 491.876L259.757 477.882ZM188.398 478.932L204.477 474.105L205.774 490.617L188.543 491.391L188.398 478.932Z" fill="#FCBDA4"/>
<path d="M186.094 474.846L187.499 486.409H206.499L207.302 474.812C209.678 473.859 211.376 471.569 211.434 468.863L214.848 295.665L251.737 470.523C252.256 472.983 255.18 476.296 257.499 477L258.999 487.5L278.499 486.409L278.113 474.472C279.964 473.038 281.038 470.68 280.668 468.16L246.707 236.408L216.016 236.408L216.017 236.319H178.845L181.073 468.539C181.104 471.593 183.231 474.148 186.094 474.846Z" fill="#2F2F3D"/>
<path opacity="0.197824" fill-rule="evenodd" clip-rule="evenodd" d="M215.037 298.41L208.528 269.583L213.425 356.978L215.037 298.41Z" fill="black"/>
<path d="M186.155 477.135C186.073 476.535 186.54 476 187.146 476H205.954C206.524 476 206.978 476.476 206.952 477.045L206.543 486.045C206.519 486.579 206.079 487 205.544 487H188.373C187.873 487 187.45 486.631 187.382 486.135L186.155 477.135Z" fill="#407BFF" fill-opacity="0.6"/>
<path d="M257.902 477.459C257.84 476.894 258.26 476.391 258.827 476.352L277.431 475.073C278.009 475.034 278.5 475.492 278.5 476.071L278.5 485.55C278.5 486.082 278.083 486.521 277.551 486.549L259.942 487.452C259.413 487.479 258.955 487.088 258.897 486.562L257.902 477.459Z" fill="#407BFF" fill-opacity="0.6"/>
<path fill-rule="evenodd" clip-rule="evenodd" d="M133.099 159.699L133.977 155.383C133.977 155.383 134.408 152.353 134.484 149.027C134.503 148.193 134.409 147.304 134.309 146.355C134.01 143.52 133.654 140.148 136.078 136.083C139.312 130.661 132.99 133.818 131.322 136.378C130.678 137.368 130.304 138.95 129.933 140.519C129.504 142.334 129.08 144.131 128.245 144.975C127.229 144.22 126.609 143.338 126.609 143.338L116.51 125.605C116.188 125.011 115.474 124.745 114.837 124.976L114.119 125.242C113.361 125.522 113.011 126.383 113.367 127.099C114.046 128.475 115.243 130.802 116.494 133.235L116.494 133.236L116.495 133.237C118.765 137.652 121.213 142.413 121.073 142.462L120.687 142.811L108.323 125.491C107.941 124.919 107.191 124.719 106.575 125.025L105.614 125.501C104.915 125.846 104.653 126.699 105.042 127.369C106.308 129.581 109.53 134.441 112.213 138.486C114.534 141.986 116.451 144.877 116.347 144.917L115.853 145.271L104.011 131.449C103.608 130.848 102.798 130.671 102.178 131.037L101.439 131.479C100.791 131.862 100.583 132.697 100.976 133.337L112.055 147.116L111.604 147.64L101.608 138.3C101.163 137.775 100.395 137.665 99.8154 138.037L99.4675 138.269C98.8526 138.672 98.673 139.491 99.0679 140.115C99.6965 141.112 101.025 142.494 102.61 144.14C104.433 146.036 106.594 148.282 108.415 150.699C109.418 152.03 110.198 153.305 110.988 154.597L110.988 154.598C112.278 156.709 113.596 158.865 115.959 161.381C117.369 162.888 118.704 163.838 119.975 164.743L119.976 164.744C120.156 164.871 120.334 164.998 120.51 165.125L133.099 159.699ZM228.699 146.881C228.699 146.881 220.049 146.864 213.806 146.843C207.564 146.822 199.714 149.441 199.714 149.441C199.714 149.441 195.629 158.598 209.818 157.769C224.007 156.939 228.699 146.881 228.699 146.881ZM276.009 183.936C276.009 183.936 289.856 204.676 289.542 216.21C289.171 229.81 245.611 263.226 245.611 263.226L234.322 254.05L261.745 215.899L251.772 194.7L276.009 183.936Z" fill="#FCBDA4"/>
<path d="M237.602 237.42L230.859 246.449L251.17 264.115C251.17 264.115 288.443 236.856 289.594 215.483C290.327 201.87 278.391 182.439 278.391 182.439C278.391 182.439 263.41 158.548 246.092 150.485C242.538 148.83 233.922 147.45 228.698 146.881C227.097 146.706 228.055 147.329 227.505 148.382C226.931 149.483 225.183 151.114 223.974 152.333C221.457 154.87 216.497 156.791 213.832 157.184C211.802 157.484 207.878 157.949 205.99 157.696C204.102 157.443 202.05 156.593 201.502 156.088C200.953 155.582 200.137 154.95 199.714 153.977C199.291 153.003 199.312 153.282 199.312 152.384C199.312 151.486 199.359 151.619 199.447 151.191C199.535 150.764 199.535 150.507 199.587 150.286C199.817 149.309 199.714 149.441 199.714 149.441C189.491 152.522 184.312 153.663 180.588 158.144L152.126 178.074L134.714 158.144L116.717 166.275C116.717 166.275 129.774 210.911 145.897 215.483C158.885 219.166 172.043 207.712 176.669 203.117L171.172 230.959C170.291 235.766 174.51 237.585 178.268 237.415L237.602 237.42Z" fill="#4B72C5"/>
<path opacity="0.201242" fill-rule="evenodd" clip-rule="evenodd" d="M176.755 203.134L180.157 189.72L170.972 208.052L176.755 203.134Z" fill="black"/>
<path opacity="0.200591" d="M240.125 234.187L255.986 211.742L236.826 182.75" stroke="black" stroke-width="3.00313"/>
<path d="M278.429 51.655L209.771 27.296L35.9876 509.453L228.885 509.453L278.429 51.655Z" fill="white" fill-opacity="0.05"/>
<path d="M222.564 114.715C224.25 122.752 220.143 136.241 214.976 131.332C209.809 126.423 221.54 109.809 222.564 114.715Z" fill="#263238"/>
<path d="M218.478 118.959L211.418 126.821L201 137.5C201.806 138.702 202.153 140.079 202.5 141.5C203.396 144.637 202.233 146.768 201.5 149.5C200.797 149.809 201.431 150.782 201 151.435C200.569 152.089 201.022 153.211 201 154C201 154 202.476 155.564 209 155.5C215.301 155.339 216.688 155.433 221.702 151.435C224.178 149.613 223.971 147.882 222.327 145.268C217.655 137.857 217.661 127.318 218.478 118.959Z" fill="#FCBDA4"/>
<path opacity="0.2" d="M203.086 134.895L209.184 127.126C209.243 127.356 209.312 127.622 209.381 127.888C209.618 129.025 209.766 130.181 209.825 131.344C210.038 135.302 206.273 140.245 202.702 142.297C202.609 142.028 202.547 141.764 202.463 141.495C202.115 140.161 201.585 138.885 200.889 137.708C200.844 137.639 200.789 137.578 200.725 137.527L203.086 134.895Z" fill="black"/>
<path d="M181.046 101.783C178.635 105.537 182.841 118.087 190.648 114.657C198.456 111.226 185.319 95.1276 181.046 101.783Z" fill="#263238"/>
<path d="M218.459 104.052C218.958 117.132 219.892 124.767 214.189 132.048C205.61 143.001 189.493 138.524 185.221 125.827C181.375 114.405 181.207 94.9287 193.02 88.5801C195.655 87.1823 198.583 86.4928 201.531 86.5752C204.48 86.6576 207.356 87.5093 209.891 89.0516C212.427 90.5939 214.541 92.7769 216.039 95.3988C217.536 98.0208 218.369 100.997 218.459 104.052Z" fill="#FCBDA4"/>
<path d="M220.612 113.346C215.384 118.795 206.305 105.557 208.486 98.1027C196.493 102.66 183.196 109.222 177.228 100.723C170.342 90.9262 174.637 79.3332 184.538 79.9432C182.23 83.1301 191.707 86.3564 197.859 81.8789C208.177 74.3668 221.761 78.6629 220.259 85.935C227.44 84.3292 232.103 101.371 220.612 113.346Z" fill="#263238"/>
<path d="M218.637 87.7548C221.57 86.2008 221.044 78.7544 215.386 75.6133C220.979 77.369 226.152 82.8174 218.637 87.7548Z" fill="#263238"/>
<path d="M224.583 113.454C224.214 116.361 222.833 119.036 220.699 120.975C217.905 123.425 214.719 120.535 214.492 116.837C214.289 113.503 216.085 108.732 219.372 107.725C222.612 106.733 225.032 109.837 224.583 113.454Z" fill="#FCBDA4"/>
<path d="M199.277 111.268C199.428 112.348 199.001 113.33 198.324 113.463C197.646 113.595 196.974 112.828 196.816 111.746C196.659 110.665 197.092 109.684 197.77 109.551C198.447 109.419 199.126 110.189 199.277 111.268Z" fill="#263238"/>
<path d="M187.558 113.558C187.709 114.637 187.282 115.62 186.605 115.753C185.927 115.885 185.255 115.118 185.097 114.036C184.939 112.955 185.373 111.974 186.05 111.842C186.728 111.709 187.407 112.478 187.558 113.558Z" fill="#263238"/>
<path d="M191.416 113.667C190.951 116.729 190.093 119.716 188.867 122.549C190.716 123.636 193.192 122.249 193.192 122.249L191.416 113.667Z" fill="#E9A185"/>
<path d="M195.014 128.342C196.223 128.146 197.383 127.699 198.425 127.027C199.466 126.356 200.368 125.475 201.076 124.436C201.115 124.364 201.126 124.279 201.106 124.2C201.086 124.12 201.038 124.051 200.97 124.008C200.903 123.965 200.822 123.95 200.744 123.968C200.666 123.985 200.597 124.032 200.552 124.1C199.768 125.218 198.749 126.136 197.573 126.784C196.397 127.432 195.095 127.794 193.768 127.84C193.727 127.842 193.687 127.853 193.65 127.871C193.614 127.89 193.581 127.915 193.553 127.947C193.526 127.978 193.505 128.015 193.491 128.055C193.477 128.094 193.471 128.137 193.473 128.179C193.475 128.221 193.485 128.262 193.503 128.3C193.52 128.338 193.545 128.372 193.575 128.4C193.605 128.428 193.64 128.449 193.678 128.463C193.717 128.477 193.757 128.483 193.798 128.481C194.205 128.459 194.611 128.413 195.014 128.342Z" fill="#263238"/>
<path d="M201.029 107.018C201.129 106.983 201.218 106.923 201.289 106.842C201.4 106.716 201.459 106.55 201.452 106.38C201.445 106.21 201.374 106.051 201.254 105.936C200.551 105.243 199.692 104.741 198.755 104.475C197.817 104.208 196.828 104.185 195.876 104.407C195.798 104.429 195.725 104.468 195.661 104.519C195.597 104.571 195.543 104.635 195.503 104.708C195.463 104.782 195.437 104.862 195.428 104.945C195.418 105.029 195.424 105.113 195.446 105.193C195.491 105.355 195.595 105.492 195.736 105.574C195.877 105.656 196.045 105.677 196.202 105.632C196.952 105.469 197.727 105.497 198.462 105.715C199.196 105.932 199.866 106.332 200.415 106.88C200.495 106.958 200.595 107.012 200.703 107.036C200.811 107.06 200.924 107.054 201.029 107.018Z" fill="#263238"/>
<path d="M186.488 106.567C186.519 106.46 186.523 106.346 186.498 106.238C186.474 106.129 186.422 106.03 186.348 105.949C186.275 105.868 186.182 105.808 186.079 105.776C185.975 105.745 185.866 105.741 185.761 105.767C184.805 105.975 183.912 106.423 183.16 107.071C182.408 107.72 181.82 108.549 181.448 109.485C181.42 109.565 181.407 109.649 181.412 109.734C181.416 109.818 181.436 109.9 181.472 109.976C181.507 110.052 181.557 110.12 181.618 110.175C181.679 110.23 181.75 110.272 181.827 110.298C181.982 110.353 182.152 110.341 182.3 110.266C182.448 110.191 182.561 110.059 182.615 109.898C182.918 109.169 183.387 108.525 183.982 108.023C184.577 107.521 185.28 107.175 186.03 107.016C186.138 106.99 186.237 106.935 186.318 106.856C186.399 106.777 186.458 106.677 186.488 106.567Z" fill="#263238"/>
<path fill-rule="evenodd" clip-rule="evenodd" d="M69.2804 76H12.0392C5.39031 76 -7.62939e-06 71.0219 -7.62939e-06 64.8816V32.1184C-7.62939e-06 25.9781 5.39031 21 12.0392 21H94.9607C101.61 21 107 25.9781 107 32.1184V64.8816C107 71.0219 101.61 76 94.9607 76H83.7645L103.627 103L69.2804 76Z" fill="#0A0A0A"/>
<path d="M22.286 41.22C22.634 41.22 22.91 41.328 23.114 41.544C23.318 41.748 23.42 42.024 23.42 42.372V52.938C23.42 53.286 23.312 53.568 23.096 53.784C22.892 54 22.622 54.108 22.286 54.108C21.938 54.108 21.662 54 21.458 53.784C21.254 53.568 21.152 53.286 21.152 52.938V48.492H14.654V52.938C14.654 53.286 14.546 53.568 14.33 53.784C14.126 54 13.85 54.108 13.502 54.108C13.166 54.108 12.89 54 12.674 53.784C12.47 53.568 12.368 53.286 12.368 52.938V42.372C12.368 42.024 12.47 41.748 12.674 41.544C12.878 41.328 13.154 41.22 13.502 41.22C13.85 41.22 14.126 41.328 14.33 41.544C14.546 41.748 14.654 42.024 14.654 42.372V46.62H21.152V42.372C21.152 42.024 21.254 41.748 21.458 41.544C21.662 41.328 21.938 41.22 22.286 41.22ZM27.0673 54.108C26.7433 54.108 26.4733 54.018 26.2573 53.838C26.0533 53.646 25.9513 53.376 25.9513 53.028V46.08C25.9513 45.732 26.0533 45.468 26.2573 45.288C26.4733 45.108 26.7433 45.018 27.0673 45.018C27.3913 45.018 27.6613 45.108 27.8773 45.288C28.0933 45.468 28.2013 45.732 28.2013 46.08V53.028C28.2013 53.376 28.0933 53.646 27.8773 53.838C27.6613 54.018 27.3913 54.108 27.0673 54.108ZM27.0673 43.416C26.6593 43.416 26.3353 43.308 26.0953 43.092C25.8553 42.864 25.7353 42.57 25.7353 42.21C25.7353 41.85 25.8553 41.562 26.0953 41.346C26.3353 41.13 26.6593 41.022 27.0673 41.022C27.4633 41.022 27.7813 41.13 28.0213 41.346C28.2733 41.562 28.3993 41.85 28.3993 42.21C28.3993 42.57 28.2793 42.864 28.0393 43.092C27.7993 43.308 27.4753 43.416 27.0673 43.416ZM40.4663 44.982C41.2343 44.982 41.9123 45.168 42.5003 45.54C43.0883 45.912 43.5443 46.44 43.8683 47.124C44.2043 47.808 44.3723 48.606 44.3723 49.518C44.3723 50.43 44.2043 51.24 43.8683 51.948C43.5443 52.644 43.0823 53.184 42.4823 53.568C41.8943 53.952 41.2223 54.144 40.4663 54.144C39.8303 54.144 39.2603 54.006 38.7563 53.73C38.2643 53.454 37.8863 53.07 37.6223 52.578V53.028C37.6223 53.352 37.5203 53.61 37.3163 53.802C37.1123 53.994 36.8423 54.09 36.5063 54.09C36.1703 54.09 35.9003 53.994 35.6963 53.802C35.5043 53.61 35.4083 53.352 35.4083 53.028V42.264C35.4083 41.952 35.5103 41.7 35.7143 41.508C35.9303 41.316 36.2063 41.22 36.5423 41.22C36.8783 41.22 37.1483 41.31 37.3523 41.49C37.5563 41.67 37.6583 41.916 37.6583 42.228V46.476C37.9223 45.996 38.3003 45.63 38.7923 45.378C39.2843 45.114 39.8423 44.982 40.4663 44.982ZM39.8723 52.398C40.5803 52.398 41.1323 52.146 41.5283 51.642C41.9243 51.138 42.1223 50.43 42.1223 49.518C42.1223 48.618 41.9243 47.928 41.5283 47.448C41.1443 46.968 40.5923 46.728 39.8723 46.728C39.1523 46.728 38.5943 46.974 38.1983 47.466C37.8143 47.946 37.6223 48.642 37.6223 49.554C37.6223 50.466 37.8143 51.168 38.1983 51.66C38.5943 52.152 39.1523 52.398 39.8723 52.398ZM53.1668 45.018C53.5148 45.018 53.7908 45.114 53.9948 45.306C54.1988 45.498 54.3008 45.756 54.3008 46.08V53.064C54.3008 53.376 54.1928 53.628 53.9768 53.82C53.7728 54.012 53.5028 54.108 53.1668 54.108C52.8428 54.108 52.5848 54.018 52.3928 53.838C52.2008 53.658 52.1048 53.412 52.1048 53.1V52.65C51.8288 53.13 51.4568 53.502 50.9888 53.766C50.5208 54.018 49.9928 54.144 49.4048 54.144C47.2448 54.144 46.1648 52.932 46.1648 50.508V46.08C46.1648 45.756 46.2668 45.498 46.4708 45.306C46.6748 45.114 46.9448 45.018 47.2808 45.018C47.6288 45.018 47.9048 45.114 48.1088 45.306C48.3128 45.498 48.4148 45.756 48.4148 46.08V50.526C48.4148 51.15 48.5408 51.612 48.7928 51.912C49.0448 52.212 49.4408 52.362 49.9808 52.362C50.6048 52.362 51.1028 52.158 51.4748 51.75C51.8588 51.33 52.0508 50.778 52.0508 50.094V46.08C52.0508 45.756 52.1528 45.498 52.3568 45.306C52.5608 45.114 52.8308 45.018 53.1668 45.018ZM63.9867 41.22C64.3227 41.22 64.5987 41.316 64.8147 41.508C65.0307 41.7 65.1387 41.952 65.1387 42.264V53.028C65.1387 53.352 65.0367 53.61 64.8327 53.802C64.6287 53.994 64.3587 54.09 64.0227 54.09C63.6867 54.09 63.4167 53.994 63.2127 53.802C63.0087 53.61 62.9067 53.352 62.9067 53.028V52.578C62.6427 53.07 62.2587 53.454 61.7547 53.73C61.2627 54.006 60.6987 54.144 60.0627 54.144C59.3067 54.144 58.6287 53.952 58.0287 53.568C57.4407 53.184 56.9787 52.644 56.6427 51.948C56.3187 51.24 56.1567 50.43 56.1567 49.518C56.1567 48.606 56.3187 47.808 56.6427 47.124C56.9787 46.44 57.4407 45.912 58.0287 45.54C58.6167 45.168 59.2947 44.982 60.0627 44.982C60.6987 44.982 61.2627 45.114 61.7547 45.378C62.2467 45.642 62.6247 46.014 62.8887 46.494V42.228C62.8887 41.928 62.9847 41.688 63.1767 41.508C63.3807 41.316 63.6507 41.22 63.9867 41.22ZM60.6567 52.398C61.3767 52.398 61.9287 52.152 62.3127 51.66C62.7087 51.168 62.9067 50.466 62.9067 49.554C62.9067 48.642 62.7087 47.946 62.3127 47.466C61.9287 46.974 61.3827 46.728 60.6747 46.728C59.9547 46.728 59.3967 46.968 59.0007 47.448C58.6047 47.928 58.4067 48.618 58.4067 49.518C58.4067 50.43 58.6047 51.138 59.0007 51.642C59.3967 52.146 59.9487 52.398 60.6567 52.398ZM74.7972 41.22C75.1332 41.22 75.4092 41.316 75.6252 41.508C75.8412 41.7 75.9492 41.952 75.9492 42.264V53.028C75.9492 53.352 75.8472 53.61 75.6432 53.802C75.4392 53.994 75.1692 54.09 74.8332 54.09C74.4972 54.09 74.2272 53.994 74.0232 53.802C73.8192 53.61 73.7172 53.352 73.7172 53.028V52.578C73.4532 53.07 73.0692 53.454 72.5652 53.73C72.0732 54.006 71.5092 54.144 70.8732 54.144C70.1172 54.144 69.4392 53.952 68.8392 53.568C68.2512 53.184 67.7892 52.644 67.4532 51.948C67.1292 51.24 66.9672 50.43 66.9672 49.518C66.9672 48.606 67.1292 47.808 67.4532 47.124C67.7892 46.44 68.2512 45.912 68.8392 45.54C69.4272 45.168 70.1052 44.982 70.8732 44.982C71.5092 44.982 72.0732 45.114 72.5652 45.378C73.0572 45.642 73.4352 46.014 73.6992 46.494V42.228C73.6992 41.928 73.7952 41.688 73.9872 41.508C74.1912 41.316 74.4612 41.22 74.7972 41.22ZM71.4672 52.398C72.1872 52.398 72.7392 52.152 73.1232 51.66C73.5192 51.168 73.7172 50.466 73.7172 49.554C73.7172 48.642 73.5192 47.946 73.1232 47.466C72.7392 46.974 72.1932 46.728 71.4852 46.728C70.7652 46.728 70.2072 46.968 69.8112 47.448C69.4152 47.928 69.2172 48.618 69.2172 49.518C69.2172 50.43 69.4152 51.138 69.8112 51.642C70.2072 52.146 70.7592 52.398 71.4672 52.398ZM84.4018 45.666C84.4978 45.45 84.6238 45.294 84.7798 45.198C84.9478 45.09 85.1278 45.036 85.3198 45.036C85.5958 45.036 85.8418 45.132 86.0578 45.324C86.2858 45.504 86.3998 45.732 86.3998 46.008C86.3998 46.14 86.3638 46.278 86.2918 46.422L81.3778 56.718C81.1738 57.126 80.8558 57.33 80.4238 57.33C80.1478 57.33 79.9018 57.24 79.6858 57.06C79.4818 56.892 79.3798 56.676 79.3798 56.412C79.3798 56.28 79.4158 56.13 79.4878 55.962L80.7118 53.388L77.3638 46.422C77.3038 46.302 77.2738 46.164 77.2738 46.008C77.2738 45.732 77.3878 45.498 77.6158 45.306C77.8558 45.114 78.1258 45.018 78.4258 45.018C78.6298 45.018 78.8158 45.072 78.9838 45.18C79.1518 45.276 79.2838 45.432 79.3798 45.648L81.8998 51.21L84.4018 45.666ZM88.1148 54.108C87.7308 54.108 87.4128 53.982 87.1608 53.73C86.9088 53.466 86.7828 53.142 86.7828 52.758C86.7828 52.374 86.9088 52.056 87.1608 51.804C87.4128 51.54 87.7308 51.408 88.1148 51.408C88.4988 51.408 88.8168 51.54 89.0688 51.804C89.3208 52.056 89.4468 52.374 89.4468 52.758C89.4468 53.142 89.3208 53.466 89.0688 53.73C88.8168 53.982 88.4988 54.108 88.1148 54.108ZM92.5797 54.108C92.1957 54.108 91.8777 53.982 91.6257 53.73C91.3737 53.466 91.2477 53.142 91.2477 52.758C91.2477 52.374 91.3737 52.056 91.6257 51.804C91.8777 51.54 92.1957 51.408 92.5797 51.408C92.9637 51.408 93.2817 51.54 93.5337 51.804C93.7857 52.056 93.9117 52.374 93.9117 52.758C93.9117 53.142 93.7857 53.466 93.5337 53.73C93.2817 53.982 92.9637 54.108 92.5797 54.108Z" fill="url(#paint0_linear)"/>
<defs>
<linearGradient id="paint0_linear" x1="17.8063" y1="38.6256" x2="36.948" y2="79.4433" gradientUnits="userSpaceOnUse">
<stop stop-color="#739EFF"/>
<stop offset="1" stop-color="#4B8EFF"/>
</linearGradient>
</defs>
</svg>
