<svg width="593" height="442" viewBox="0 0 593 442" fill="none" xmlns="http://www.w3.org/2000/svg">
<path d="M296.298 442C459.939 442 592.596 434.081 592.596 424.312C592.596 414.543 459.939 406.624 296.298 406.624C132.657 406.624 0 414.543 0 424.312C0 434.081 132.657 442 296.298 442Z" fill="#161616"/>
<path d="M394.982 240.173H264.57C262.101 240.173 260.099 242.219 260.099 244.744V250C260.099 252.525 262.101 254.571 264.57 254.571H394.982C397.452 254.571 399.454 252.525 399.454 250V244.744C399.454 242.219 397.452 240.173 394.982 240.173Z" fill="#195472"/>
<path d="M393.737 414.943H399.45L392.879 254.569H384.969L393.737 414.943Z" fill="#000203"/>
<path opacity="0.6" d="M393.737 414.943H399.45L392.879 254.569H384.969L393.737 414.943Z" fill="#272424"/>
<path d="M341.113 414.943H335.396L341.977 254.569H349.887L341.113 414.943Z" fill="#000203"/>
<path opacity="0.6" d="M341.113 414.943H335.396L341.977 254.569H349.887L341.113 414.943Z" fill="#272424"/>
<path d="M318.435 414.943H324.152L317.572 254.569H309.662L318.435 414.943Z" fill="#000203"/>
<path opacity="0.6" d="M318.435 414.943H324.152L317.572 254.569H309.662L318.435 414.943Z" fill="#272424"/>
<path d="M265.813 414.943H260.098L266.678 254.569H274.588L265.813 414.943Z" fill="#000203"/>
<path opacity="0.6" d="M265.813 414.943H260.098L266.678 254.569H274.588L265.813 414.943Z" fill="#272424"/>
<g opacity="0.3">
<path opacity="0.3" d="M392.878 254.565H384.958L385.328 261.382H393.159L392.878 254.565Z" fill="#000203"/>
<path opacity="0.3" d="M341.699 261.382H349.514L349.884 254.565H341.978L341.699 261.382Z" fill="#000203"/>
<path opacity="0.3" d="M309.668 254.565L310.038 261.382H317.855L317.574 254.565H309.668Z" fill="#000203"/>
<path opacity="0.3" d="M266.392 261.382H274.222L274.592 254.565H266.673L266.392 261.382Z" fill="#000203"/>
</g>
<path d="M314.765 391.376L301.823 398.405L281.447 370.268L294.389 363.238L314.765 391.376Z" fill="#FCBDA4"/>
<path d="M297.16 394.059L310.661 384.462C310.883 384.292 311.16 384.219 311.434 384.257C311.708 384.296 311.956 384.443 312.124 384.668L320.206 395.123C320.598 395.695 320.754 396.402 320.639 397.091C320.525 397.779 320.15 398.394 319.595 398.802C314.838 402.062 312.694 403.198 306.474 406.972C300.436 410.733 294.216 414.182 287.839 417.305C282.327 419.753 279.94 414.039 282.112 412.463C287.251 408.736 294.068 401.422 295.609 396.285C295.87 395.388 296.415 394.605 297.16 394.059Z" fill="#51466F"/>
<path opacity="0.2" d="M294.399 363.246L281.451 370.276L291.268 383.821L303.921 376.387L294.399 363.246Z" fill="black"/>
<path d="M325.621 196.6C325.621 196.6 225.155 193.404 224.811 236.313C224.468 274.407 272.5 355.5 281.577 378.974L303.87 363.746C303.87 363.746 264.631 304.866 264.29 256.722C293.899 248.178 363.598 253.536 372.649 228.448C380.053 207.926 376.185 196.596 376.185 196.596L325.621 196.6Z" fill="#30373C"/>
<path d="M310.023 367.665L283.374 384.349L275.017 375.679L304.297 356.837L310.023 367.665Z" fill="#537EDA"/>
<path d="M294.354 399.229C295.414 398.433 296.388 397.522 297.258 396.513C297.302 396.463 297.33 396.401 297.34 396.335C297.351 396.269 297.342 396.201 297.315 396.139C297.289 396.078 297.245 396.025 297.19 395.988C297.136 395.951 297.071 395.931 297.006 395.931C296.436 395.931 291.416 395.973 290.349 397.604C290.227 397.79 290.154 398.005 290.136 398.228C290.118 398.451 290.157 398.675 290.248 398.879C290.348 399.205 290.531 399.498 290.779 399.727C291.027 399.956 291.33 400.114 291.657 400.183C292.641 400.22 293.603 399.88 294.354 399.229ZM296.205 396.645C294.353 398.612 292.724 399.669 291.773 399.497C291.56 399.446 291.365 399.337 291.208 399.182C291.05 399.027 290.936 398.832 290.878 398.616C290.829 398.518 290.807 398.408 290.814 398.299C290.82 398.189 290.855 398.083 290.914 397.991C291.49 397.115 294.194 396.729 296.205 396.645Z" fill="#454F56"/>
<path d="M297.201 396.565C297.245 396.532 297.282 396.49 297.308 396.441C297.335 396.389 297.348 396.331 297.347 396.272C297.345 396.213 297.33 396.155 297.301 396.104C297.21 395.948 295.077 392.221 293.052 391.886C292.792 391.84 292.525 391.855 292.271 391.932C292.018 392.009 291.786 392.146 291.593 392.33C291.358 392.508 291.189 392.761 291.111 393.049C291.034 393.337 291.054 393.643 291.166 393.919C291.801 395.456 295.337 396.746 297.03 396.624C297.091 396.62 297.15 396.6 297.201 396.565ZM292.17 392.753C292.281 392.673 292.407 392.615 292.54 392.585C292.672 392.555 292.81 392.552 292.944 392.577C294.153 392.774 295.627 394.728 296.387 395.918C294.729 395.762 292.21 394.659 291.795 393.65C291.715 393.458 291.672 393.194 292.045 392.853C292.085 392.818 292.127 392.784 292.17 392.753Z" fill="#454F56"/>
<path d="M290.84 408.622L276.322 407.919L273.944 372.872L288.462 373.575L290.84 408.622Z" fill="#FCBDA4"/>
<path d="M275.985 405.381L292.424 404.848C292.699 404.829 292.971 404.922 293.18 405.107C293.389 405.292 293.518 405.553 293.539 405.835L294.748 419.104C294.771 419.802 294.524 420.482 294.06 420.995C293.596 421.508 292.952 421.814 292.269 421.846C286.543 421.93 283.799 421.675 276.57 421.908C272.123 422.052 263.375 422.728 257.279 421.944C251.319 421.175 252.115 415.016 254.768 414.794C261.049 414.268 269.466 409.831 273.494 406.38C274.193 405.773 275.069 405.422 275.985 405.381Z" fill="#51466F"/>
<path d="M270.88 408.153C272.193 408.076 273.495 407.855 274.762 407.493C274.825 407.475 274.882 407.439 274.926 407.39C274.969 407.34 274.998 407.278 275.008 407.212C275.019 407.146 275.01 407.079 274.984 407.018C274.957 406.956 274.914 406.904 274.86 406.868C274.383 406.555 270.151 403.79 268.386 404.565C268.184 404.653 268.008 404.792 267.874 404.969C267.741 405.146 267.654 405.356 267.622 405.577C267.532 405.906 267.53 406.252 267.615 406.582C267.7 406.912 267.87 407.212 268.106 407.452C268.913 408.03 269.902 408.281 270.88 408.153ZM273.808 407.018C271.21 407.642 269.277 407.614 268.573 406.943C268.422 406.781 268.316 406.58 268.267 406.362C268.218 406.144 268.227 405.917 268.293 405.704C268.304 405.595 268.343 405.491 268.407 405.403C268.471 405.315 268.556 405.245 268.655 405.202C269.604 404.787 272.077 405.968 273.808 407.018Z" fill="#454F56"/>
<path d="M274.687 407.503C274.772 407.5 274.853 407.465 274.914 407.404C274.975 407.343 275.011 407.261 275.015 407.174C275.025 406.991 275.22 402.678 273.698 401.272C273.505 401.088 273.273 400.952 273.019 400.876C272.766 400.8 272.499 400.784 272.239 400.832C271.948 400.851 271.671 400.969 271.453 401.167C271.235 401.365 271.087 401.632 271.035 401.925C270.747 403.569 273.021 406.619 274.511 407.46C274.565 407.49 274.626 407.505 274.687 407.503ZM272.5 401.507C272.636 401.5 272.772 401.522 272.899 401.57C273.026 401.619 273.143 401.693 273.241 401.789C274.158 402.627 274.346 405.087 274.349 406.508C273.043 405.451 271.517 403.126 271.705 402.05C271.741 401.844 271.846 401.599 272.341 401.521C272.394 401.513 272.447 401.508 272.5 401.507Z" fill="#454F56"/>
<path opacity="0.2" d="M288.468 373.585L273.939 372.882L275.307 392.923L289.785 392.898L288.468 373.585Z" fill="black"/>
<path d="M361.36 196.601C361.36 196.601 256.241 206.755 260.069 239.105C265.59 285.755 268.321 386.296 268.321 386.296L295.112 387.372C295.112 387.372 306.465 296.688 300.592 248.918C327.793 248.918 394.389 250.921 400.463 234.164C405.827 219.363 403.914 196.601 403.914 196.601H361.36Z" fill="#2B3033"/>
<path d="M298.071 389.06L265.918 387.431L264.763 373.124L300.024 375.613L298.071 389.06Z" fill="#537EDA"/>
<path d="M338.025 101.842C337.831 104.471 337.626 106.744 337.334 109.159C337.059 111.54 336.739 113.911 336.373 116.273C335.656 121.006 334.752 125.719 333.677 130.445C331.585 140.353 328.192 149.927 323.591 158.907C322.22 161.426 320.643 163.823 318.878 166.072C316.895 168.61 314.557 170.836 311.939 172.677C306.891 176.096 301.057 178.108 295.014 178.512C289.729 178.881 284.42 178.367 279.297 176.99C276.876 176.367 274.496 175.587 272.171 174.656C271.017 174.203 269.886 173.693 268.763 173.163C267.605 172.626 266.608 172.069 265.325 171.362L269.345 160.905L272.266 161.283L275.322 161.595C277.362 161.761 279.384 161.862 281.363 161.869C285.077 161.931 288.783 161.497 292.387 160.577C295.271 159.866 297.941 158.446 300.166 156.44C301.117 155.527 301.967 154.508 302.698 153.402C303.606 151.985 304.412 150.504 305.111 148.969C306.733 145.385 308.062 141.671 309.084 137.863C310.238 133.903 311.179 129.759 312.017 125.552C312.88 121.35 313.574 117.063 314.237 112.764L315.14 106.297C315.405 104.177 315.707 101.906 315.905 99.9815L338.025 101.842Z" fill="#FCBDA4"/>
<path d="M338.121 89.1153C327.375 78.5005 314.129 84.7663 308.843 104.646C305.851 115.305 306.5 137.5 306.5 137.5C306.5 143.5 303 153.5 303 153.5C303 153.5 278 160.5 280 162C282 163.5 281 166.5 281 166.5H319.5L336.763 144.449C342.953 125.474 349.127 99.9862 338.121 89.1153Z" fill="#537EDA"/>
<path opacity="0.3" d="M327.166 110.829C329.598 108.584 336.511 118.615 340.724 131.021C339.535 135.659 338.168 140.224 336.78 144.456L320 166C320 166 321 163.5 320 158C319 152.5 318 140 318 140C318 126 321.706 115.854 327.166 110.829Z" fill="black"/>
<path d="M267.04 156.091L259.466 153.108L259.133 169.684C259.133 169.684 271.97 175.361 274.587 168.841L273.67 164.706C273.22 162.874 272.396 161.16 271.254 159.675C270.111 158.191 268.675 156.969 267.04 156.091Z" fill="#FCBDA4"/>
<path d="M250.388 153.544L245.878 167.447L259.131 169.676L259.464 153.101L250.388 153.544Z" fill="#FCBDA4"/>
<path d="M261.947 164.585C261.785 164.585 261.627 164.539 261.489 164.454C261.351 164.368 261.239 164.245 261.164 164.099L247.511 137.24C247.454 137.134 247.418 137.018 247.405 136.898C247.392 136.778 247.403 136.657 247.437 136.542C247.471 136.426 247.528 136.319 247.603 136.226C247.678 136.133 247.771 136.057 247.876 136.001C247.981 135.945 248.095 135.912 248.213 135.903C248.33 135.893 248.449 135.908 248.561 135.946C248.673 135.984 248.776 136.045 248.864 136.125C248.953 136.204 249.025 136.302 249.076 136.41L262.727 163.27C262.797 163.407 262.831 163.56 262.825 163.714C262.82 163.869 262.776 164.019 262.698 164.151C262.62 164.283 262.509 164.393 262.378 164.469C262.246 164.544 262.098 164.585 261.947 164.585Z" fill="#537EDA"/>
<path d="M336.858 78.4698L353.17 73.7131L374.148 72.7008C377.33 72.5507 380.472 73.4721 383.092 75.3236C385.712 77.1751 387.665 79.8543 388.651 82.95C392.652 95.4081 396.33 113.456 399.01 129.033C402.015 146.498 403.581 172.745 403.911 196.602H325.619C323.833 146.851 317.638 117.434 314.892 101.155C314.353 97.9658 314.85 94.6838 316.307 91.81C317.763 88.9362 320.099 86.6283 322.959 85.2386L336.858 78.4698Z" fill="#537EDA"/>
<path opacity="0.3" d="M399.003 129.033C396.897 116.775 394.177 102.97 391.154 91.5776C377.2 89.1672 370.438 120.451 374.581 135.963C381.5 152 387 163 387 163C391.5 159 399.678 132.977 399.003 129.033Z" fill="black"/>
<path d="M350.394 41.2344C353.756 49.6699 351.73 65.1351 345.102 60.7611C338.474 56.3871 348.348 36.084 350.394 41.2344Z" fill="#363A43"/>
<path d="M346.668 46.6266L340.327 56.5182L331.699 69.9995C332.814 71.1565 333.717 72.5083 334.366 73.9908C335.941 77.2385 337.243 79.6676 330.576 84.315C329.857 84.7842 329.285 85.4556 328.93 86.2487C328.575 87.0418 328.451 87.9228 328.574 88.7859C328.967 90.8917 331.019 92.9381 338.22 91.64C345.156 90.2788 351.486 86.6871 356.284 81.3891C358.682 78.9381 358.13 77.0917 355.826 74.5547C349.279 67.3626 347.322 55.8839 346.668 46.6266Z" fill="#FCBDA4"/>
<path opacity="0.2" d="M333.824 66.6787L339.117 57.0701C339.226 57.3091 339.351 57.5856 339.478 57.8621C339.951 59.056 340.33 60.2867 340.612 61.5424C341.585 65.8132 338.344 71.9055 334.779 74.8126C334.626 74.5377 334.508 74.2612 334.365 73.9847C333.731 72.5964 332.908 71.3073 331.92 70.1559C331.857 70.0896 331.784 70.0337 331.704 69.9904L333.824 66.6787Z" fill="black"/>
<path d="M302.084 34.967C300.119 39.5097 307.107 52.3863 315.099 47.1797C323.092 41.9732 305.568 26.9143 302.084 34.967Z" fill="#1F2022"/>
<path d="M340.623 94.4096C340.518 94.4095 340.417 94.3712 340.337 94.3017C340.257 94.2321 340.204 94.1359 340.187 94.03C339.596 90.1669 337.156 87.719 334.328 84.8822C330.786 81.3268 326.769 77.2964 325.445 69.417C325.426 69.2992 325.453 69.1783 325.52 69.0807C325.588 68.9832 325.691 68.9171 325.806 68.8969C325.863 68.8852 325.922 68.8856 325.979 68.8979C326.036 68.9103 326.09 68.9344 326.137 68.9687C326.185 69.003 326.225 69.0469 326.256 69.0977C326.286 69.1484 326.306 69.205 326.315 69.264C327.589 76.8606 331.497 80.7831 334.946 84.2433C337.762 87.0707 340.421 89.7388 341.059 93.8941C341.076 94.0121 341.048 94.1324 340.979 94.229C340.91 94.3255 340.807 94.3904 340.692 94.4096C340.669 94.4111 340.646 94.4111 340.623 94.4096Z" fill="white"/>
<path d="M343.869 30.3948C346.858 44.5462 349.314 52.685 344.365 61.6892C336.922 75.2329 318.27 73.3912 311.181 60.3676C304.801 48.6515 300.985 27.472 312.862 18.3335C315.515 16.315 318.622 15.0129 321.898 14.5474C325.173 14.082 328.511 14.4683 331.602 15.6705C334.692 16.8728 337.437 18.8522 339.581 21.4259C341.725 23.9995 343.2 27.0842 343.869 30.3948Z" fill="#FCBDA4"/>
<path d="M347.981 40.1116C343.216 47.0303 330.713 34.3222 331.735 25.7929C319.325 33.0147 305.847 42.6641 297.666 34.5316C288.227 25.1587 290.815 11.7242 301.874 10.5245C299.917 14.4298 310.996 16.1591 316.962 10.1246C326.97 0.000270844 342.788 2.12168 342.483 10.3245C350.122 7.22366 358.454 24.9056 347.981 40.1116Z" fill="#1F2022"/>
<path d="M341.028 12.6113C343.982 10.3665 342.013 2.35573 335.172 -1.52588e-05C341.682 0.859174 348.417 5.81904 341.028 12.6113Z" fill="#1F2022"/>
<path d="M352.39 39.4813C352.525 42.7168 351.497 45.8907 349.499 48.4043C346.866 51.5988 342.806 49.051 341.866 45.066C341.019 41.473 342.116 35.9384 345.562 34.2232C348.96 32.5329 352.213 35.4573 352.39 39.4813Z" fill="#FCBDA4"/>
<path d="M324.007 41.8655C324.376 43.0137 324.087 44.1635 323.362 44.4353C322.638 44.7071 321.752 43.9979 321.376 42.8497C321 41.7015 321.296 40.5517 322.021 40.2799C322.745 40.0081 323.639 40.7189 324.007 41.8655Z" fill="#060606"/>
<path d="M311.478 46.5658C311.846 47.7123 311.558 48.8635 310.833 49.1353C310.109 49.4071 309.222 48.6979 308.847 47.5498C308.471 46.4017 308.767 45.2521 309.491 44.9803C310.216 44.7085 311.11 45.4177 311.478 46.5658Z" fill="#060606"/>
<path d="M315.764 45.9583C315.82 49.3808 315.429 52.7955 314.601 56.1122C316.847 56.948 319.326 54.9703 319.326 54.9703L315.764 45.9583Z" fill="#ED893E"/>
<path d="M322.476 61.2639C323.776 60.8222 324.975 60.1166 326.002 59.1894C327.028 58.2622 327.861 57.1326 328.45 55.8683C328.479 55.7824 328.475 55.6881 328.439 55.605C328.402 55.5219 328.336 55.4564 328.253 55.422C328.171 55.3877 328.079 55.3871 327.996 55.4205C327.913 55.4538 327.845 55.5185 327.808 55.6011C327.15 56.9655 326.194 58.1574 325.015 59.085C323.835 60.0125 322.463 60.6511 321.004 60.9515C320.96 60.9617 320.918 60.9809 320.881 61.0077C320.844 61.0346 320.812 61.0687 320.788 61.1081C320.763 61.1475 320.747 61.1913 320.739 61.2372C320.731 61.2831 320.732 61.3302 320.742 61.3756C320.752 61.421 320.771 61.464 320.797 61.5021C320.824 61.5401 320.857 61.5725 320.896 61.5974C320.934 61.6223 320.977 61.6391 321.022 61.6471C321.067 61.655 321.113 61.6538 321.157 61.6435C321.604 61.5436 322.044 61.4168 322.476 61.2639Z" fill="#060606"/>
<path d="M325.152 36.9054C325.256 36.8491 325.344 36.7662 325.407 36.6649C325.506 36.5067 325.54 36.3149 325.501 36.1314C325.462 35.9479 325.353 35.7876 325.199 35.6856C324.292 35.0632 323.25 34.6781 322.164 34.5643C321.077 34.4504 319.98 34.6113 318.969 35.0327C318.886 35.0716 318.813 35.1268 318.751 35.1952C318.69 35.2635 318.643 35.3437 318.612 35.4309C318.582 35.5181 318.568 35.6107 318.573 35.7032C318.578 35.7957 318.601 35.8864 318.64 35.9698C318.719 36.1377 318.86 36.267 319.031 36.3298C319.203 36.3926 319.392 36.3839 319.557 36.3056C320.356 35.9865 321.218 35.8712 322.071 35.9698C322.923 36.0683 323.738 36.3776 324.447 36.871C324.551 36.9409 324.671 36.981 324.795 36.987C324.919 36.9931 325.042 36.9649 325.152 36.9054Z" fill="#060606"/>
<path d="M308.993 39.1534C309.007 39.0308 308.99 38.9065 308.942 38.7929C308.895 38.6793 308.819 38.5804 308.723 38.5061C308.626 38.4318 308.512 38.3847 308.392 38.3694C308.272 38.3542 308.151 38.3714 308.039 38.4192C307.022 38.8253 306.118 39.4812 305.407 40.3291C304.696 41.177 304.2 42.1907 303.964 43.2807C303.948 43.3727 303.95 43.4669 303.97 43.558C303.99 43.649 304.028 43.735 304.082 43.8108C304.135 43.8866 304.202 43.9508 304.28 43.9996C304.358 44.0483 304.445 44.0806 304.535 44.0946C304.716 44.1249 304.902 44.0803 305.051 43.9708C305.201 43.8613 305.301 43.6957 305.331 43.5104C305.53 42.6587 305.929 41.8694 306.493 41.2105C307.058 40.5516 307.77 40.0429 308.57 39.7283C308.684 39.6801 308.784 39.6013 308.858 39.5001C308.933 39.399 308.979 39.2792 308.993 39.1534Z" fill="#060606"/>
<path d="M385.953 83.432C387.424 85.9596 388.703 88.2309 389.97 90.6694C391.229 93.0741 392.458 95.4923 393.656 97.924C396.077 102.784 398.265 107.778 400.357 112.867C402.388 117.985 404.304 123.206 405.897 128.684C407.629 134.41 408.79 140.3 409.363 146.265C409.67 149.755 409.554 153.27 409.017 156.731C408.662 159.014 407.979 161.231 406.989 163.311C405.853 165.66 404.268 167.754 402.327 169.467C400.571 171.011 398.577 172.246 396.425 173.122C394.615 173.864 392.731 174.401 390.806 174.725C387.566 175.242 384.275 175.334 381.012 174.999C378.099 174.739 375.208 174.261 372.364 173.569C369.648 172.935 366.965 172.161 364.326 171.251C359.138 169.503 354.099 167.324 349.259 164.735L353.135 154.222C362.635 156.058 372.848 157.765 381.406 157.229C383.282 157.127 385.14 156.801 386.941 156.258C388.427 155.789 389.255 155.088 389.191 154.872C389.178 154.747 389.099 154.797 389.061 154.716C389.023 154.634 389.013 154.544 389.097 153.736C389.188 151.983 389.086 150.225 388.792 148.495C388.053 144.036 386.91 139.656 385.379 135.412C383.816 130.891 382.005 126.313 379.991 121.775C378.035 117.21 375.844 112.696 373.658 108.167C372.552 105.908 371.417 103.663 370.253 101.433L366.798 94.8919L385.953 83.432Z" fill="#FCBDA4"/>
<path d="M378.792 72.9472C364.016 70.6509 356.764 83.5995 363.714 102.94C367.311 113.401 371.825 123.509 377.199 133.141L384.5 145.5L388.5 152.5C388.5 152.5 382.898 155 377.199 155.5C371.5 156 363.714 155.5 363.714 155.5C365.739 159.879 365.701 162.286 363.714 166.5H405C405 166.5 410.5 165.5 413 163C415.5 160.5 416 152.5 416 152.5C416 152.5 416 145 415 140.5C414 136 409.025 118.869 409.025 118.869C404 100.5 392 78.5 378.792 72.9472Z" fill="#537EDA"/>
<path d="M344.958 152.731L338.133 154.832L347.805 168.874C347.805 168.874 362.148 163.624 359.211 157.25L355.606 155.151C352.516 153.351 348.61 151.451 344.958 152.731Z" fill="#FCBDA4"/>
<path d="M332.104 164.511L338.93 171.489L347.805 168.875L338.133 154.833L332.104 164.511Z" fill="#FCBDA4"/>
<path d="M347 43.9534C348.212 43.9534 349.194 42.7364 349.194 41.2352C349.194 39.734 348.212 38.517 347 38.517C345.788 38.517 344.805 39.734 344.805 41.2352C344.805 42.7364 345.788 43.9534 347 43.9534Z" fill="white"/>
<path d="M348.825 48.4209L347.55 48.3772L346.77 42.1115L349.193 41.5553L348.825 48.4209Z" fill="white"/>
<path d="M357.598 166.5C352.962 166.5 348.949 165.81 346.476 163.532C345.562 162.624 344.851 161.524 344.392 160.309C343.933 159.093 343.736 157.79 343.816 156.49C343.949 150.052 344.916 143.66 346.692 137.482C348.831 128.97 350.512 122.246 345.399 113.964C337.275 100.789 339.692 82.3694 345.377 70.8314C349.734 61.9975 348.253 52.2201 347.697 48.5397C347.624 48.0585 347.569 47.6883 347.544 47.4462C347.533 47.3274 347.568 47.2089 347.642 47.1165C347.716 47.0241 347.822 46.9652 347.939 46.9525C348.054 46.9447 348.168 46.9819 348.258 47.0567C348.348 47.1315 348.407 47.2382 348.423 47.3556C348.444 47.5899 348.498 47.9461 348.576 48.4053C349.144 52.1639 350.657 62.1522 346.175 71.2407C340.597 82.5584 338.21 100.609 346.154 113.487C351.464 122.098 349.652 129.33 347.553 137.7C345.798 143.806 344.84 150.123 344.705 156.485C344.621 157.66 344.79 158.839 345.199 159.94C345.609 161.041 346.249 162.038 347.075 162.859C351.191 166.655 360.302 165.691 369.115 164.761C373.053 164.344 377.125 163.915 380.72 163.915C380.836 163.915 380.948 163.962 381.031 164.046C381.113 164.131 381.16 164.245 381.16 164.365C381.16 164.484 381.113 164.598 381.031 164.683C380.948 164.767 380.836 164.815 380.72 164.815C377.17 164.815 373.122 165.244 369.205 165.657C365.242 166.072 361.229 166.5 357.598 166.5Z" fill="white"/>
<path d="M399.024 163.16H381.627C381.121 163.16 380.71 163.58 380.71 164.097V165.349C380.71 165.866 381.121 166.286 381.627 166.286H399.024C399.531 166.286 399.941 165.866 399.941 165.349V164.097C399.941 163.58 399.531 163.16 399.024 163.16Z" fill="white"/>
<path d="M508.163 176.69H84.4311C83.0827 176.686 81.7907 176.136 80.8372 175.162C79.8838 174.187 79.3463 172.866 79.3423 171.488C79.3459 170.11 79.8832 168.789 80.8368 167.814C81.7903 166.839 83.0826 166.29 84.4311 166.286H508.163C509.511 166.29 510.804 166.839 511.757 167.814C512.711 168.789 513.248 170.11 513.252 171.488C513.248 172.866 512.71 174.187 511.757 175.162C510.803 176.136 509.511 176.686 508.163 176.69Z" fill="#4A5979"/>
<path opacity="0.3" d="M508.165 176.69H408.97C407.622 176.686 406.33 176.136 405.376 175.162C404.422 174.187 403.884 172.867 403.88 171.488C403.884 170.11 404.422 168.789 405.375 167.814C406.329 166.839 407.622 166.29 408.97 166.286H508.165C509.513 166.29 510.805 166.839 511.759 167.814C512.713 168.789 513.25 170.11 513.253 171.488C513.249 172.866 512.712 174.187 511.759 175.162C510.805 176.136 509.513 176.686 508.165 176.69Z" fill="black"/>
<path d="M503.493 421.787H513.253L502.018 176.687H488.514L503.493 421.787Z" fill="black"/>
<path opacity="0.1" d="M503.493 421.787H513.253L502.018 176.687H488.514L503.493 421.787Z" fill="white"/>
<path d="M413.641 421.787H403.883L415.119 176.687H428.625L413.641 421.787Z" fill="black"/>
<path opacity="0.2" d="M413.641 421.787H403.883L415.119 176.687H428.625L413.641 421.787Z" fill="white"/>
<path d="M178.957 421.787H188.715L177.48 176.687H163.974L178.957 421.787Z" fill="black"/>
<path opacity="0.1" d="M178.957 421.787H188.715L177.48 176.687H163.974L178.957 421.787Z" fill="white"/>
<path d="M89.1038 421.787H79.3433L90.5785 176.687H104.085L89.1038 421.787Z" fill="black"/>
<path opacity="0.2" d="M89.1038 421.787H79.3433L90.5785 176.687H104.085L89.1038 421.787Z" fill="white"/>
<path d="M419.313 189.728H93.4233V210.268H419.313V189.728Z" fill="black"/>
<path opacity="0.2" d="M419.313 189.728H93.4233V210.268H419.313V189.728Z" fill="white"/>
<path d="M311.455 163.688H248.38C248.043 163.689 247.72 163.826 247.482 164.07C247.244 164.314 247.11 164.644 247.109 164.989C247.11 165.333 247.244 165.664 247.482 165.907C247.72 166.151 248.043 166.289 248.38 166.29H311.455C311.792 166.289 312.115 166.151 312.353 165.908C312.592 165.664 312.726 165.334 312.728 164.989C312.726 164.644 312.592 164.314 312.353 164.07C312.115 163.826 311.792 163.689 311.455 163.688Z" fill="white"/>
<path d="M434.844 160.592H476.286L480.032 166.133H431.1L434.844 160.592Z" fill="#506D9A"/>
<path d="M498.843 65.9488C498.843 67.0758 498.516 68.1776 497.903 69.1148C497.291 70.0519 496.42 70.7823 495.402 71.2136C494.383 71.6449 493.262 71.7578 492.181 71.5379C491.099 71.318 490.106 70.7753 489.326 69.9783C488.546 69.1813 488.016 68.1659 487.8 67.0605C487.585 65.9551 487.696 64.8093 488.118 63.768C488.54 62.7267 489.254 61.8367 490.171 61.2106C491.088 60.5844 492.166 60.2502 493.268 60.2502C494.747 60.2502 496.165 60.8506 497.21 61.9193C498.256 62.988 498.843 64.4374 498.843 65.9488Z" fill="black"/>
<path d="M456.935 164.341C456.645 164.341 456.359 164.267 456.104 164.126C455.848 163.985 455.631 163.782 455.47 163.535C455.31 163.288 455.212 163.004 455.185 162.709C455.158 162.413 455.203 162.116 455.315 161.842L495.244 65.2503C495.426 64.8105 495.772 64.4628 496.205 64.2837C496.638 64.1045 497.123 64.1086 497.553 64.2951C497.984 64.4815 498.324 64.835 498.499 65.2778C498.674 65.7206 498.67 66.2164 498.488 66.6562L458.559 163.248C458.424 163.573 458.197 163.851 457.908 164.045C457.62 164.24 457.281 164.343 456.935 164.341Z" fill="#506D9A"/>
<path d="M496.862 67.748C496.482 67.7486 496.112 67.6231 495.808 67.3902L423.291 11.8233C422.917 11.5368 422.67 11.1101 422.603 10.6371C422.537 10.1641 422.657 9.68357 422.937 9.30117C423.218 8.91877 423.635 8.66584 424.098 8.59802C424.56 8.5302 425.031 8.65306 425.405 8.93955L497.925 64.5081C498.221 64.7348 498.439 65.051 498.55 65.4119C498.66 65.7728 498.656 66.1601 498.539 66.5187C498.422 66.8773 498.197 67.1891 497.897 67.4097C497.596 67.6304 497.235 67.7487 496.866 67.748H496.862Z" fill="#506D9A"/>
<path d="M502.442 65.9488C502.442 67.0758 502.115 68.1775 501.502 69.1146C500.89 70.0517 500.019 70.7821 499.001 71.2134C497.982 71.6448 496.861 71.7577 495.78 71.538C494.698 71.3182 493.705 70.7756 492.925 69.9788C492.146 69.182 491.615 68.1668 491.399 67.0615C491.184 65.9562 491.294 64.8104 491.716 63.7691C492.138 62.7278 492.852 61.8377 493.769 61.2113C494.685 60.5849 495.763 60.2505 496.865 60.2502C498.344 60.2502 499.762 60.8505 500.808 61.9192C501.854 62.9878 502.441 64.4373 502.442 65.9488Z" fill="#506D9A"/>
<path d="M424.343 16.066C427.415 16.066 429.906 13.5202 429.906 10.3798C429.906 7.23948 427.415 4.69371 424.343 4.69371C421.271 4.69371 418.781 7.23948 418.781 10.3798C418.781 13.5202 421.271 16.066 424.343 16.066Z" fill="#506D9A"/>
<path d="M416.548 36.3722C414.805 38.1538 412.585 39.3671 410.167 39.8586C407.75 40.3502 405.244 40.0979 402.967 39.1336C400.69 38.1694 398.744 36.5366 397.374 34.4417C396.005 32.3468 395.274 29.8838 395.274 27.3642C395.274 24.8446 396.005 22.3817 397.374 20.2867C398.744 18.1918 400.69 16.5589 402.967 15.5947C405.244 14.6305 407.75 14.3782 410.167 14.8698C412.585 15.3613 414.805 16.5746 416.548 18.3562C417.706 19.5391 418.624 20.9435 419.25 22.4891C419.876 24.0347 420.199 25.6912 420.199 27.3642C420.199 29.0371 419.876 30.6937 419.25 32.2393C418.624 33.7849 417.706 35.1893 416.548 36.3722Z" fill="#6A44D6"/>
<path opacity="0.7" d="M416.548 36.3722C414.805 38.1538 412.585 39.3671 410.167 39.8586C407.75 40.3502 405.244 40.0979 402.967 39.1336C400.69 38.1694 398.744 36.5366 397.374 34.4417C396.005 32.3468 395.274 29.8838 395.274 27.3642C395.274 24.8446 396.005 22.3817 397.374 20.2867C398.744 18.1918 400.69 16.5589 402.967 15.5947C405.244 14.6305 407.75 14.3782 410.167 14.8698C412.585 15.3613 414.805 16.5746 416.548 18.3562C417.706 19.5391 418.624 20.9435 419.25 22.4891C419.876 24.0347 420.199 25.6912 420.199 27.3642C420.199 29.0371 419.876 30.6937 419.25 32.2393C418.624 33.7849 417.706 35.1893 416.548 36.3722Z" fill="white"/>
<path d="M424.344 10.3801C421.863 7.84403 418.918 5.83227 415.676 4.45973C412.435 3.08719 408.96 2.38075 405.452 2.38075C401.943 2.38075 398.469 3.08719 395.227 4.45973C391.986 5.83227 389.041 7.84403 386.56 10.3801L424.344 49.0024C429.354 43.8804 432.168 36.9341 432.168 29.6913C432.168 22.4484 429.354 15.5021 424.344 10.3801Z" fill="#506D9A"/>
<g opacity="0.2">
<path opacity="0.2" d="M386.559 10.3813L227.89 166.283H390.66L424.342 49.0006L386.559 10.3813Z" fill="#6A44D6"/>
<path opacity="0.7" d="M386.559 10.3813L227.89 166.283H390.66L424.342 49.0006L386.559 10.3813Z" fill="white"/>
</g>
<path d="M223.82 158.753H265.691C265.691 163.103 262.164 166.63 257.814 166.63H223.82V158.753Z" fill="#434954"/>
<rect x="245.909" y="161.113" width="7.94961" height="3.17984" rx="0.524998" fill="#4D535F"/>
<rect x="246.704" y="161.908" width="6.35969" height="1.58992" rx="0.224999" fill="#5F697C"/>
<path d="M110.419 85.1795C109.571 81.4268 112.424 77.8568 116.271 77.8568H207.783C210.598 77.8568 213.035 79.8144 213.642 82.5636L230.52 159.034C231.346 162.778 228.496 166.327 224.661 166.327H133.554C130.75 166.327 128.32 164.385 127.702 161.65L110.419 85.1795Z" fill="#434954"/>
<path d="M110.669 86.2122C110.457 85.2725 110.351 84.8026 110.324 84.4218C110.143 81.8267 111.982 79.5263 114.553 79.1314C114.93 79.0734 115.412 79.0734 116.375 79.0734L206.805 79.0734C207.452 79.0734 207.775 79.0734 208.061 79.1064C209.969 79.3267 211.583 80.621 212.212 82.4362C212.306 82.708 212.376 83.0235 212.516 83.6544L228.295 154.663C228.504 155.601 228.608 156.07 228.633 156.45C228.806 159.04 226.968 161.331 224.402 161.725C224.025 161.782 223.545 161.782 222.585 161.782H132.413C131.769 161.782 131.447 161.782 131.162 161.75C129.259 161.53 127.648 160.243 127.015 158.435C126.92 158.164 126.849 157.85 126.707 157.221L110.669 86.2122Z" fill="url(#paint0_linear)"/>
<path d="M172.531 114.338C174.321 117.84 173.012 122.105 169.608 123.864C166.204 125.623 161.993 124.21 160.204 120.708C158.414 117.207 159.723 112.942 163.127 111.183C166.531 109.424 170.741 110.837 172.531 114.338Z" fill="#697387"/>
<path d="M162.18 119.673C162.059 119.68 161.961 119.652 161.886 119.59C161.815 119.526 161.776 119.434 161.769 119.313L161.565 115.653C161.558 115.531 161.586 115.435 161.649 115.365C161.717 115.294 161.811 115.255 161.933 115.248L163.175 115.177C163.899 115.135 164.471 115.298 164.89 115.664C165.314 116.026 165.545 116.557 165.584 117.256C165.623 117.959 165.453 118.517 165.073 118.929C164.697 119.336 164.147 119.561 163.423 119.602L162.18 119.673ZM163.336 118.946C164.353 118.888 164.832 118.34 164.774 117.302C164.716 116.268 164.179 115.781 163.162 115.839L162.39 115.883L162.564 118.99L163.336 118.946ZM168.504 119.369C168.077 119.393 167.697 119.322 167.365 119.157C167.036 118.991 166.777 118.741 166.586 118.408C166.395 118.074 166.287 117.677 166.261 117.217C166.236 116.757 166.299 116.352 166.452 116.003C166.604 115.65 166.834 115.373 167.142 115.17C167.454 114.968 167.823 114.854 168.25 114.83C168.526 114.814 168.788 114.841 169.035 114.911C169.283 114.977 169.505 115.081 169.702 115.226C169.758 115.264 169.798 115.306 169.822 115.351C169.845 115.396 169.859 115.452 169.863 115.519C169.868 115.611 169.847 115.69 169.801 115.755C169.754 115.821 169.695 115.856 169.624 115.86C169.54 115.865 169.453 115.84 169.361 115.787C169.174 115.663 169.001 115.58 168.844 115.539C168.686 115.494 168.513 115.476 168.325 115.487C167.889 115.512 167.566 115.667 167.356 115.952C167.149 116.236 167.06 116.642 167.09 117.17C167.12 117.701 167.253 118.097 167.49 118.356C167.731 118.615 168.069 118.732 168.505 118.707C168.685 118.697 168.848 118.66 168.996 118.597C169.148 118.534 169.316 118.432 169.502 118.291C169.542 118.264 169.583 118.241 169.624 118.221C169.665 118.202 169.708 118.191 169.754 118.189C169.825 118.185 169.888 118.213 169.941 118.273C169.995 118.332 170.024 118.408 170.03 118.501C170.033 118.563 170.026 118.62 170.008 118.672C169.989 118.719 169.954 118.765 169.902 118.81C169.722 118.976 169.514 119.107 169.276 119.205C169.037 119.298 168.78 119.353 168.504 119.369Z" fill="#434954"/>
<path d="M412.497 151.725L413.823 165.828H430.698L432.053 151.88L412.497 151.725Z" fill="#506D9A"/>
<path d="M412.497 151.725L413.823 165.828H430.698L432.053 151.88L412.497 151.725Z" fill="url(#paint1_linear)"/>
<path d="M410.536 149.415H433.618L433.761 154.035H410.536V149.415Z" fill="#506D9A"/>
<path d="M433.76 154.09C433.76 154.206 428.562 154.3 422.151 154.3C415.738 154.3 410.542 154.206 410.542 154.09C410.542 153.975 415.738 153.881 422.151 153.881C428.562 153.881 433.76 153.975 433.76 154.09Z" fill="#343E55"/>
<path d="M431.415 158.386C431.437 158.4 431.282 158.724 430.921 159.267C430.558 159.808 429.983 160.568 429.13 161.381L429.024 161.483L428.919 161.373C427.808 160.207 426.281 158.778 424.396 157.413L424.651 157.402C424.006 157.968 423.335 158.557 422.645 159.162C421.826 159.876 421.031 160.568 420.274 161.226L420.143 161.341L420.012 161.23C418.574 160.022 417.267 158.922 416.157 157.99L416.382 157.966C415.586 158.937 414.917 159.753 414.388 160.398C413.908 160.968 413.63 161.274 413.605 161.255C413.581 161.236 413.812 160.892 414.25 160.29C414.75 159.622 415.381 158.777 416.134 157.771L416.23 157.643L416.358 157.747C417.484 158.659 418.811 159.735 420.27 160.918L420.007 160.921C420.761 160.259 421.553 159.564 422.369 158.847C423.061 158.244 423.735 157.658 424.382 157.094L424.505 156.986L424.637 157.083C426.537 158.479 428.057 159.957 429.139 161.171L428.928 161.162C430.64 159.608 431.348 158.336 431.415 158.386Z" fill="#455A64"/>
<path d="M413.897 150.136C408.47 147.545 405.567 141.518 405.35 136.585C405.133 131.653 407.627 126.506 412.54 123.678C417.715 120.699 425.084 120.753 430.401 123.557C435.718 126.361 438.832 131.652 438.593 136.848C438.353 142.043 434.913 147.005 429.827 150.085" fill="#11A789"/>
<path d="M422.558 150.613C422.523 150.613 422.489 150.211 422.458 149.484C422.43 148.677 422.395 147.645 422.352 146.407C422.271 143.81 422.147 140.223 421.937 136.263C421.724 132.303 421.465 128.72 421.269 126.127C421.179 124.892 421.104 123.86 421.046 123.055C421 122.328 420.991 121.926 421.026 121.923C421.061 121.92 421.136 122.318 421.243 123.04C421.351 123.762 421.483 124.809 421.627 126.104C421.916 128.694 422.232 132.279 422.445 136.245C422.655 140.21 422.723 143.803 422.711 146.404C422.706 147.704 422.686 148.757 422.656 149.484C422.627 150.211 422.593 150.613 422.558 150.613Z" fill="#343E55"/>
<path d="M406.956 135.468C406.944 135.583 406.079 135.619 405.023 135.548C403.966 135.476 403.119 135.325 403.131 135.21C403.143 135.094 404.008 135.059 405.064 135.13C406.12 135.201 406.967 135.353 406.956 135.468Z" fill="#263238"/>
<path d="M407.252 131.042C407.195 131.148 406.449 130.978 405.585 130.663C404.721 130.347 404.066 130.006 404.124 129.9C404.18 129.794 404.927 129.964 405.791 130.28C406.655 130.595 407.309 130.937 407.252 131.042Z" fill="#263238"/>
<path d="M410.018 127.757C409.945 127.854 409.106 127.528 408.233 126.932C407.359 126.337 406.814 125.719 406.915 125.642C407.019 125.561 407.711 126.034 408.557 126.609C409.401 127.186 410.095 127.658 410.018 127.757Z" fill="#263238"/>
<path d="M412.799 124.658C412.671 124.704 412.269 124.187 411.901 123.502C411.533 122.816 411.339 122.223 411.467 122.176C411.596 122.13 411.998 122.647 412.366 123.332C412.734 124.017 412.928 124.611 412.799 124.658Z" fill="#263238"/>
<path d="M417.162 122.458C417.038 122.506 416.604 121.955 416.317 121.192C416.028 120.428 416.005 119.772 416.141 119.753C416.281 119.733 416.524 120.333 416.803 121.067C417.079 121.802 417.292 122.409 417.162 122.458Z" fill="#263238"/>
<path d="M424.444 119.979C424.577 120.018 424.496 120.488 424.263 121.03C424.031 121.572 423.736 121.98 423.603 121.941C423.471 121.903 423.552 121.432 423.784 120.89C424.016 120.348 424.312 119.941 424.444 119.979Z" fill="#263238"/>
<path d="M429.845 121.888C429.941 121.973 429.594 122.364 429.071 122.762C428.548 123.161 428.048 123.415 427.952 123.33C427.857 123.245 428.203 122.854 428.726 122.455C429.249 122.057 429.75 121.803 429.845 121.888Z" fill="#263238"/>
<path d="M434.599 124.416C434.678 124.512 434.256 124.861 433.656 125.195C433.056 125.53 432.506 125.724 432.427 125.628C432.349 125.532 432.771 125.183 433.371 124.849C433.971 124.514 434.521 124.32 434.599 124.416Z" fill="#263238"/>
<path d="M437.976 128.186C438.031 128.292 437.365 128.628 436.489 128.936C435.612 129.244 434.856 129.407 434.802 129.301C434.747 129.194 435.412 128.859 436.289 128.551C437.165 128.243 437.921 128.079 437.976 128.186Z" fill="#263238"/>
<path d="M439.305 132.297C439.323 132.412 438.646 132.576 437.793 132.663C436.94 132.75 436.234 132.727 436.217 132.613C436.199 132.498 436.877 132.334 437.73 132.247C438.583 132.16 439.288 132.183 439.305 132.297Z" fill="#263238"/>
<path d="M439.997 137.359C439.941 137.465 439.219 137.309 438.385 137.01C437.55 136.711 436.92 136.383 436.976 136.277C437.032 136.171 437.753 136.327 438.588 136.626C439.422 136.925 440.053 137.253 439.997 137.359Z" fill="#263238"/>
<path d="M439.388 141.702C439.343 141.807 438.43 141.629 437.477 141.113C436.52 140.6 435.955 139.983 436.055 139.908C436.158 139.824 436.851 140.279 437.755 140.762C438.655 141.25 439.439 141.59 439.388 141.702Z" fill="#263238"/>
<path d="M436.641 145.656C436.557 145.745 435.831 145.394 435.134 144.774C434.434 144.156 434.062 143.533 434.177 143.471C434.296 143.405 434.837 143.898 435.507 144.489C436.173 145.083 436.731 145.563 436.641 145.656Z" fill="#263238"/>
<path d="M410.567 146.12C410.632 146.222 409.869 146.655 408.864 147.086C407.858 147.517 406.99 147.784 406.925 147.681C406.86 147.579 407.623 147.146 408.629 146.715C409.634 146.284 410.502 146.017 410.567 146.12Z" fill="#263238"/>
<path d="M408.185 142.543C408.244 142.648 407.632 142.98 406.819 143.283C406.007 143.587 405.301 143.747 405.243 143.642C405.185 143.537 405.797 143.206 406.609 142.902C407.422 142.599 408.127 142.438 408.185 142.543Z" fill="#263238"/>
<path d="M406.434 139.376C406.454 139.491 405.702 139.674 404.753 139.784C403.805 139.895 403.02 139.892 403 139.777C402.98 139.663 403.733 139.48 404.682 139.369C405.63 139.259 406.414 139.261 406.434 139.376Z" fill="#263238"/>
<path d="M412.177 137.631C412.218 137.738 411.484 138.021 410.505 138.11C409.525 138.203 408.733 138.062 408.744 137.95C408.754 137.832 409.52 137.783 410.447 137.694C411.375 137.61 412.135 137.517 412.177 137.631Z" fill="#263238"/>
<path d="M416.947 133.722C416.989 133.829 416.405 134.073 415.616 134.136C414.828 134.201 414.197 134.056 414.212 133.943C414.225 133.826 414.834 133.78 415.566 133.719C416.299 133.661 416.906 133.609 416.947 133.722Z" fill="#263238"/>
<path d="M417.86 130.59C417.814 130.699 417.181 130.619 416.446 130.41C415.712 130.2 415.153 129.942 415.199 129.833C415.245 129.724 415.878 129.804 416.613 130.014C417.347 130.223 417.906 130.481 417.86 130.59Z" fill="#263238"/>
<path d="M419.608 127.424C419.511 127.504 419.076 127.268 418.766 126.824C418.454 126.381 418.424 125.953 418.557 125.923C418.695 125.891 418.929 126.222 419.207 126.615C419.48 127.01 419.712 127.342 419.608 127.424Z" fill="#263238"/>
<path d="M417.5 140.388C417.533 140.5 416.985 140.707 416.276 140.85C415.867 140.932 415.493 140.976 415.248 140.975L415.147 140.73C415.331 140.703 415.45 140.709 415.474 140.754C415.498 140.799 415.423 140.875 415.274 140.967L415.174 140.723C415.391 140.629 415.746 140.525 416.156 140.443C416.865 140.301 417.467 140.275 417.5 140.388Z" fill="#263238"/>
<path d="M418.483 145.94C418.534 146.047 417.836 146.374 416.923 146.669C416.01 146.965 415.229 147.118 415.177 147.01C415.126 146.902 415.824 146.575 416.737 146.28C417.65 145.984 418.432 145.832 418.483 145.94Z" fill="#263238"/>
<path d="M413.094 143.474C413.139 143.583 412.673 143.813 412.053 143.986C411.434 144.16 410.894 144.212 410.849 144.103C410.804 143.993 411.269 143.763 411.889 143.59C412.509 143.416 413.049 143.365 413.094 143.474Z" fill="#263238"/>
<path d="M413.506 132.173C413.474 132.284 412.663 132.218 411.726 131.944C410.787 131.671 410.106 131.302 410.166 131.199C410.227 131.093 410.985 131.284 411.895 131.549C412.805 131.815 413.54 132.06 413.506 132.173Z" fill="#263238"/>
<path d="M426.547 130.945C426.624 131.041 426.167 131.402 425.526 131.749C424.886 132.098 424.303 132.301 424.226 132.205C424.149 132.109 424.606 131.748 425.247 131.4C425.887 131.052 426.47 130.848 426.547 130.945Z" fill="#263238"/>
<path d="M427.256 136.52C427.284 136.633 426.804 136.811 426.184 136.917C425.563 137.023 425.037 137.017 425.009 136.904C424.98 136.791 425.46 136.613 426.081 136.507C426.701 136.401 427.228 136.407 427.256 136.52Z" fill="#263238"/>
<path d="M428.08 142.788C428.021 142.893 427.33 142.733 426.537 142.431C425.743 142.128 425.148 141.798 425.207 141.693C425.265 141.587 425.957 141.748 426.75 142.05C427.544 142.353 428.139 142.683 428.08 142.788Z" fill="#263238"/>
<path d="M426.336 148.891C426.227 148.965 425.779 148.662 425.334 148.216C424.889 147.77 424.616 147.349 424.725 147.275C424.833 147.202 425.282 147.504 425.727 147.95C426.172 148.396 426.444 148.818 426.336 148.891Z" fill="#263238"/>
<path d="M425.98 126.84C426.065 126.929 425.769 127.237 425.26 127.446C424.753 127.657 424.277 127.669 424.241 127.559C424.202 127.446 424.575 127.263 425.032 127.072C425.492 126.884 425.893 126.747 425.98 126.84Z" fill="#263238"/>
<path d="M432.37 132.463C432.417 132.57 431.825 132.837 431.016 132.929C430.208 133.023 429.55 132.898 429.56 132.785C429.568 132.667 430.193 132.602 430.946 132.514C431.701 132.429 432.324 132.351 432.37 132.463Z" fill="#263238"/>
<path d="M431.097 127.415C431.159 127.516 430.572 127.862 429.737 128.08C428.903 128.301 428.182 128.301 428.162 128.189C428.139 128.073 428.789 127.892 429.582 127.681C430.376 127.474 431.033 127.31 431.097 127.415Z" fill="#263238"/>
<path d="M433.765 140.28C433.763 140.393 432.759 140.466 431.548 140.284C430.336 140.105 429.428 139.746 429.474 139.64C429.52 139.527 430.47 139.7 431.639 139.872C432.807 140.048 433.77 140.162 433.765 140.28Z" fill="#263238"/>
<path d="M431.39 147.613C431.306 147.703 430.566 147.345 429.829 146.733C429.089 146.123 428.658 145.512 428.767 145.443C428.88 145.371 429.474 145.848 430.19 146.438C430.902 147.029 431.479 147.521 431.39 147.613Z" fill="#263238"/>
<path d="M420.949 121.448C421.024 121.538 418.921 122.241 416.491 124.35C414.062 126.412 411.555 130.056 410.938 134.457C410.642 136.644 410.896 138.761 411.273 140.65C411.669 142.541 412.196 144.22 412.682 145.619C413.169 147.018 413.618 148.139 413.919 148.917C414.221 149.694 414.381 150.125 414.346 150.136C414.315 150.145 414.092 149.733 413.732 148.971C413.374 148.209 412.871 147.1 412.337 145.705C411.805 144.309 411.238 142.626 410.812 140.716C410.405 138.808 410.13 136.658 410.433 134.408C411.064 129.905 413.687 126.195 416.232 124.144C417.499 123.102 418.689 122.406 419.557 122.004C419.979 121.784 420.344 121.667 420.576 121.568C420.813 121.477 420.941 121.436 420.949 121.448Z" fill="#343E55"/>
<path d="M427.883 150.405C427.773 150.359 429.026 148.771 430.169 145.908C431.346 143.08 432.319 138.892 431.535 134.344C431.168 132.076 430.372 129.974 429.37 128.178C428.329 126.406 426.989 124.954 425.677 123.943C424.321 122.955 422.988 122.388 422.059 122.06C421.118 121.737 420.556 121.661 420.564 121.626C420.566 121.612 420.709 121.619 420.979 121.652C421.247 121.693 421.641 121.766 422.131 121.908C423.102 122.197 424.482 122.73 425.914 123.72C427.309 124.745 428.693 126.193 429.793 128.011C430.841 129.838 431.664 131.975 432.038 134.286C432.836 138.919 431.786 143.171 430.508 146.005C430.221 146.728 429.851 147.348 429.576 147.906C429.249 148.446 428.978 148.916 428.73 149.287C428.213 150.022 427.914 150.42 427.883 150.405Z" fill="#343E55"/>
<path d="M135.724 386.031L131.031 385.992C131.031 385.992 130.805 385.522 130.409 384.665C130.221 384.26 129.993 383.769 129.732 383.197C129.076 381.773 128.215 379.864 127.223 377.613C127.214 377.594 127.205 377.574 127.196 377.554C120.985 363.43 109.861 336.017 114.547 330.625C119.873 324.5 126.089 333.794 130.519 351.327C130.823 352.531 131.118 353.772 131.405 355.052C132.986 362.119 134.286 370.3 135.152 379.2C135.283 380.534 135.402 381.882 135.513 383.246C135.589 384.167 135.658 385.097 135.724 386.031Z" fill="#006C60"/>
<path d="M135.514 383.246L134.075 386.018L131.031 385.993C131.031 385.993 130.806 385.521 130.409 384.665L130.519 351.327C132.754 360.177 134.536 371.125 135.514 383.246Z" fill="#00433B"/>
<path d="M134.246 386.02L133.479 386.013L119.102 337.456C119.045 337.261 119.155 337.058 119.349 337C119.544 336.943 119.748 337.053 119.805 337.248L134.246 386.02Z" fill="#00433B"/>
<path d="M147.761 376.205C147.409 376.986 147.069 377.733 146.746 378.441C145.87 380.352 145.105 381.983 144.51 383.238C143.674 385 143.176 386.015 143.176 386.015L138.483 385.993C138.559 385.06 138.64 384.131 138.728 383.211C138.849 381.914 138.981 380.629 139.121 379.361C140.076 370.68 141.431 362.687 143.046 355.748C143.296 354.674 143.551 353.625 143.814 352.603C148.497 334.329 155.01 324.529 160.376 330.867C164.843 336.141 154.249 361.823 147.761 376.205Z" fill="#006C60"/>
<path d="M138.728 383.211L140.131 386.001L143.175 386.016C143.175 386.016 143.405 385.547 143.814 384.696L144.138 351.359C141.788 360.18 139.864 371.103 138.728 383.211Z" fill="#00433B"/>
<path d="M139.958 386.001L140.726 386.004L155.735 337.638C155.794 337.445 155.686 337.24 155.493 337.179C155.3 337.12 155.094 337.228 155.034 337.421L139.958 386.001Z" fill="#00433B"/>
<path d="M143.727 355.926C142.801 365.165 141.639 373.798 140.822 379.441C140.227 383.565 139.816 386.091 139.816 386.091L135.663 385.971C135.245 383.635 134.864 381.319 134.516 379.032C133.224 370.536 132.401 362.405 131.986 354.909C130.388 326.181 134.76 306.803 141.593 312.196C146.494 316.066 145.595 337.232 143.727 355.926Z" fill="#006C60"/>
<path d="M146.873 378.702C145.951 380.591 145.146 382.204 144.521 383.443C143.643 385.184 143.12 386.187 143.12 386.187L130.973 385.835C130.973 385.835 130.757 385.36 130.379 384.495C130.198 384.086 129.981 383.591 129.732 383.014C129.106 381.576 128.284 379.65 127.338 377.378C128.817 377.853 131.386 378.577 134.516 379.032C134.751 379.065 134.991 379.097 135.233 379.13C136.495 379.29 137.837 379.403 139.228 379.436C139.753 379.45 140.284 379.452 140.822 379.441C142.799 379.399 144.845 379.181 146.873 378.702Z" fill="#00433B"/>
<path d="M139.266 321.084L136.886 386.007L136.153 385.986L138.533 321.058C138.541 320.855 138.712 320.703 138.914 320.705C139.115 320.712 139.274 320.882 139.266 321.084Z" fill="#00433B"/>
<path d="M158.318 385.508L157.71 387.119L157.326 388.141L156.224 391.066L155.839 392.087L154.708 395.091L154.324 396.111L149.47 409H122.951L118.097 396.111L117.713 395.091L116.581 392.087L116.196 391.066L115.094 388.141L114.711 387.119L114.103 385.508C113.686 384.403 114.502 383.223 115.683 383.223H156.737C157.917 383.223 158.733 384.403 158.318 385.508Z" fill="#606C8B"/>
<path d="M158.318 385.508L157.71 387.119L157.326 388.141L156.224 391.066L155.839 392.087L154.708 395.091L154.324 396.111L149.47 409H122.951L118.097 396.111L117.713 395.091L116.581 392.087L116.196 391.066L115.094 388.141L114.711 387.119L114.103 385.508C113.686 384.403 114.502 383.223 115.683 383.223H156.737C157.917 383.223 158.733 384.403 158.318 385.508Z" fill="url(#paint2_linear)"/>
<defs>
<linearGradient id="paint0_linear" x1="150.033" y1="78.7704" x2="174.383" y2="161.71" gradientUnits="userSpaceOnUse">
<stop stop-color="#5F687A"/>
<stop offset="1" stop-color="#566072" stop-opacity="0.21"/>
</linearGradient>
<linearGradient id="paint1_linear" x1="422.275" y1="151.725" x2="422.275" y2="165.828" gradientUnits="userSpaceOnUse">
<stop stop-color="white" stop-opacity="0.17"/>
<stop offset="1" stop-color="white" stop-opacity="0"/>
</linearGradient>
<linearGradient id="paint2_linear" x1="136.21" y1="383.223" x2="136.21" y2="409" gradientUnits="userSpaceOnUse">
<stop stop-color="#727F9F"/>
<stop offset="1" stop-color="#606C8B"/>
</linearGradient>
</defs>
</svg>
