<svg width="25" height="17" viewBox="0 0 25 17" fill="none" xmlns="http://www.w3.org/2000/svg">
<path d="M7.31769 0.607422C8.05042 0.607422 8.70975 0.671858 9.31434 0.803255C9.91521 0.93339 10.4277 1.14817 10.8607 1.44508C11.2874 1.74199 11.6208 2.13618 11.8609 2.63145C12.0935 3.1204 12.2092 3.73191 12.2092 4.4546C12.2092 5.23793 12.035 5.89239 11.6854 6.41419C11.3334 6.93726 10.8146 7.36556 10.123 7.69658C11.0647 7.97328 11.7626 8.45717 12.2254 9.14449C12.6906 9.83811 12.9183 10.6682 12.9183 11.641C12.9183 12.4307 12.7702 13.1092 12.4729 13.679C12.1864 14.2403 11.7707 14.7231 11.2612 15.0864C10.7335 15.4597 10.144 15.7336 9.52085 15.895C8.86751 16.0692 8.1947 16.1567 7.51922 16.1553H0.0986328V0.607422H7.31769ZM6.88104 6.88925C7.47817 6.88925 7.97329 6.74521 8.36391 6.45336C8.75205 6.16529 8.93989 5.69024 8.93989 5.03957C8.93989 4.67823 8.87645 4.38005 8.75205 4.14632C8.63084 3.92145 8.45147 3.73447 8.23329 3.60556C8.00493 3.46801 7.75289 3.37583 7.49061 3.33393C7.20472 3.27977 6.91433 3.25396 6.62353 3.25686H3.46993V6.88925H6.88104ZM7.06888 13.5084C7.40104 13.5084 7.71702 13.4793 8.01434 13.4111C8.31415 13.3454 8.58037 13.2393 8.80678 13.0814C9.03319 12.9298 9.2198 12.7238 9.35415 12.461C9.48975 12.2007 9.55568 11.8609 9.55568 11.4528C9.55568 10.6518 9.333 10.082 8.89262 9.73704C8.45099 9.39591 7.85884 9.22661 7.13357 9.22661H3.46993V13.5097H7.06888V13.5084ZM17.7239 13.4566C18.1805 13.9089 18.8386 14.1363 19.6945 14.1363C20.3078 14.1363 20.8377 13.9784 21.2843 13.6651C21.7247 13.3505 21.9934 13.0144 22.0967 12.667H24.7775C24.3471 14.0214 23.694 14.9892 22.8008 15.5716C21.9188 16.1566 20.8452 16.4472 19.5912 16.4472C18.7179 16.4472 17.9317 16.3044 17.2276 16.0214C16.5517 15.7541 15.941 15.3411 15.4374 14.811C14.9422 14.2685 14.5593 13.6305 14.3116 12.9348C14.0393 12.1655 13.9045 11.353 13.9135 10.5355C13.9135 9.69408 14.0516 8.90696 14.3228 8.18048C14.5802 7.47824 14.9755 6.83647 15.4847 6.29417C15.9885 5.76352 16.5856 5.34532 17.2811 5.03831C18.0123 4.72595 18.7992 4.57025 19.5924 4.58094C20.5304 4.58094 21.3503 4.7654 22.0544 5.13685C22.7372 5.49143 23.3292 6.00275 23.7836 6.63024C24.2351 7.25312 24.5573 7.96696 24.7576 8.76672C24.9579 9.56521 25.0276 10.3991 24.9704 11.2721H16.9701C16.9713 12.1616 17.2661 13.0043 17.7239 13.4566ZM21.2221 7.54244C20.8601 7.13562 20.248 6.91578 19.4991 6.91578C19.0127 6.91578 18.6109 6.9979 18.2875 7.1672C17.9917 7.31891 17.7293 7.52994 17.5162 7.78755C17.329 8.02144 17.1902 8.29131 17.1081 8.58099C17.0364 8.82254 16.9901 9.07115 16.9701 9.32263H21.9237C21.8516 8.53424 21.5854 7.9518 21.2221 7.54244ZM16.348 1.65102H22.5545V3.1861H16.348V1.65102Z" fill="white"/>
</svg>
