<svg width="23" height="24" viewBox="0 0 23 24" fill="none" xmlns="http://www.w3.org/2000/svg">
<path d="M6.48772 9.59441C6.32385 9.46131 6.12095 9.38543 5.90996 9.37836H5.04454V14.5613H5.90996C6.12134 14.5543 6.32466 14.4784 6.48896 14.3452C6.68031 14.2008 6.77661 13.9847 6.77661 13.6971V10.2426C6.77784 9.95492 6.67908 9.73886 6.48772 9.59441ZM20.5739 0.849609H2.70753C1.50631 0.849609 0.532254 1.82125 0.529785 3.02254V20.8998C0.532254 22.1011 1.50631 23.0727 2.70753 23.0727H20.5752C21.7764 23.0727 22.7505 22.1011 22.7529 20.8998V3.02254C22.7513 2.44568 22.521 1.893 22.1125 1.48567C21.7041 1.07834 21.1508 0.849607 20.5739 0.849609ZM8.17782 13.7069C8.17782 14.6391 7.60252 16.0539 5.78033 16.0502H3.47913V7.84372H5.82847C7.58647 7.84372 8.17659 9.25613 8.17782 10.1883V13.7069ZM13.1716 9.30922H10.5296V11.2155H12.1457V12.6822H10.5296V14.5872H13.174V16.0539H10.0901C9.82413 16.0606 9.56638 15.9613 9.37354 15.7779C9.18069 15.5946 9.06855 15.3421 9.06176 15.0761V8.87093C9.05546 8.60511 9.15488 8.34766 9.33819 8.15508C9.52151 7.9625 9.77374 7.85052 10.0395 7.84372H13.174L13.1716 9.30922ZM18.3135 15.028C17.6579 16.5527 16.4851 16.2502 15.9604 15.028L14.0493 7.84496H15.6654L17.1382 13.4859L18.6048 7.84496H20.2221L18.3135 15.028Z" fill="white"/>
</svg>
