<svg width="23" height="23" viewBox="0 0 23 23" fill="none" xmlns="http://www.w3.org/2000/svg">
<path fill-rule="evenodd" clip-rule="evenodd" d="M11.6355 0.904297C5.53702 0.904297 0.594238 5.90309 0.594238 12.0707C0.594238 17.0034 3.75695 21.1894 8.14512 22.6672C8.69751 22.768 8.89678 22.4243 8.89678 22.1287C8.89678 21.8634 8.88792 21.1603 8.8846 20.23C5.81266 20.9039 5.16395 18.732 5.16395 18.732C4.66359 17.4423 3.9385 17.0986 3.9385 17.0986C2.93666 16.4056 4.01488 16.4213 4.01488 16.4213C5.1241 16.4996 5.70528 17.5722 5.70528 17.5722C6.69052 19.2784 8.29124 18.7858 8.91781 18.5003C9.01855 17.7782 9.30637 17.2856 9.62076 17.0068C7.16985 16.7258 4.59274 15.7674 4.59274 11.4874C4.59274 10.2705 5.02337 9.27182 5.72631 8.49261C5.61451 8.20936 5.23259 7.07302 5.83591 5.537C5.83591 5.537 6.76247 5.23584 8.87132 6.68006C9.77197 6.43227 10.701 6.30579 11.6344 6.30389C12.5678 6.30542 13.4969 6.43191 14.3975 6.68006C16.5074 5.23472 17.4329 5.537 17.4329 5.537C18.0362 7.07302 17.6576 8.20936 17.5425 8.49261C18.251 9.27182 18.6761 10.2693 18.6761 11.4874C18.6761 15.7786 16.0967 16.7213 13.637 16.9978C14.03 17.3427 14.3842 18.0233 14.3842 19.0645C14.3842 20.558 14.3709 21.7626 14.3709 22.1287C14.3709 22.4277 14.568 22.7747 15.1314 22.665C19.5174 21.185 22.6768 17.0023 22.6768 12.0707C22.6768 5.90309 17.734 0.904297 11.6355 0.904297Z" fill="white"/>
</svg>
