<svg width="25" height="24" viewBox="0 0 25 24" fill="none" xmlns="http://www.w3.org/2000/svg">
<path d="M12.3146 6.10498C10.7615 6.10498 9.27194 6.72196 8.17371 7.82019C7.07548 8.91842 6.4585 10.4079 6.4585 11.9611C6.4585 13.5142 7.07548 15.0037 8.17371 16.102C9.27194 17.2002 10.7615 17.8172 12.3146 17.8172C13.8677 17.8172 15.3572 17.2002 16.4555 16.102C17.5537 15.0037 18.1707 13.5142 18.1707 11.9611C18.1707 10.4079 17.5537 8.91842 16.4555 7.82019C15.3572 6.72196 13.8677 6.10498 12.3146 6.10498ZM12.3146 15.7642C11.3056 15.7642 10.3379 15.3634 9.62445 14.65C8.91098 13.9365 8.51016 12.9688 8.51016 11.9598C8.51016 10.9508 8.91098 9.98314 9.62445 9.26967C10.3379 8.5562 11.3056 8.15537 12.3146 8.15537C13.3236 8.15537 14.2913 8.5562 15.0047 9.26967C15.7182 9.98314 16.119 10.9508 16.119 11.9598C16.119 12.9688 15.7182 13.9365 15.0047 14.65C14.2913 15.3634 13.3236 15.7642 12.3146 15.7642Z" fill="white"/>
<path d="M18.7563 7.27635C19.7266 7.27635 20.5132 6.48979 20.5132 5.51952C20.5132 4.54925 19.7266 3.7627 18.7563 3.7627C17.7861 3.7627 16.9995 4.54925 16.9995 5.51952C16.9995 6.48979 17.7861 7.27635 18.7563 7.27635Z" fill="white"/>
<path d="M23.4065 4.28296C23.1053 3.50654 22.6452 2.80145 22.0554 2.21282C21.4656 1.62419 20.7593 1.165 19.9815 0.864635C19.0714 0.523525 18.1099 0.339081 17.138 0.319156C15.8854 0.264608 15.4886 0.249023 12.3121 0.249023C9.13564 0.249023 8.72849 0.249023 7.48625 0.319156C6.51508 0.338062 5.55428 0.522544 4.64535 0.864635C3.86741 1.16465 3.16086 1.62372 2.57105 2.21239C1.98124 2.80106 1.52118 3.50634 1.22041 4.28296C0.8787 5.19159 0.694393 6.15166 0.675383 7.12205C0.619449 8.37145 0.602539 8.76757 0.602539 11.9404C0.602539 15.112 0.602539 15.5159 0.675383 16.7588C0.694894 17.7303 0.878304 18.6888 1.22041 19.5992C1.52203 20.3756 1.98253 21.0805 2.57248 21.6691C3.16244 22.2577 3.86887 22.717 4.64665 23.0175C5.55386 23.3724 6.51505 23.57 7.48885 23.602C8.7415 23.6565 9.13824 23.6734 12.3147 23.6734C15.4912 23.6734 15.8984 23.6734 17.1406 23.602C18.1124 23.5822 19.0739 23.3983 19.9841 23.0578C20.7617 22.7567 21.4678 22.2971 22.0575 21.7084C22.6472 21.1196 23.1075 20.4145 23.4091 19.6382C23.7512 18.729 23.9346 17.7706 23.9541 16.7991C24.01 15.5497 24.0269 15.1536 24.0269 11.9807C24.0269 8.80784 24.0269 8.40522 23.9541 7.16231C23.9389 6.17821 23.7537 5.20411 23.4065 4.28296ZM21.8221 16.6627C21.8137 17.4112 21.6769 18.1527 21.4176 18.855C21.2222 19.3601 20.9232 19.8187 20.5396 20.2014C20.1561 20.5841 19.6966 20.8825 19.1906 21.0772C18.495 21.3349 17.7603 21.4716 17.0183 21.4811C15.7826 21.5383 15.434 21.5525 12.2653 21.5525C9.09401 21.5525 8.77012 21.5525 7.51096 21.4811C6.76943 21.472 6.03501 21.3354 5.33997 21.0772C4.83226 20.8837 4.37089 20.5859 3.98572 20.2031C3.60054 19.8203 3.30014 19.361 3.10393 18.855C2.84826 18.1603 2.7115 17.4275 2.69939 16.6874C2.64346 15.4536 2.63045 15.1055 2.63045 11.9417C2.63045 8.77667 2.63045 8.45327 2.69939 7.19478C2.7078 6.44672 2.84463 5.70565 3.10393 5.00377C3.50067 3.97905 4.31366 3.17253 5.33997 2.7803C6.03535 2.52333 6.76955 2.38673 7.51096 2.37639C8.748 2.32054 9.09531 2.30496 12.2653 2.30496C15.4353 2.30496 15.7605 2.30496 17.0183 2.37639C17.7603 2.3853 18.4952 2.52194 19.1906 2.7803C19.6966 2.97547 20.156 3.27409 20.5395 3.657C20.923 4.03991 21.2221 4.49865 21.4176 5.00377C21.6732 5.69854 21.81 6.43132 21.8221 7.1714C21.878 8.40652 21.8924 8.75329 21.8924 11.9184C21.8924 15.0821 21.8924 15.4224 21.8364 16.664H21.8221V16.6627Z" fill="white"/>
</svg>
