<svg width="22" height="21" viewBox="0 0 22 21" fill="none" xmlns="http://www.w3.org/2000/svg">
<path d="M3.13592 5.74282C4.53884 5.74282 5.67613 4.65968 5.67613 3.32356C5.67613 1.98744 4.53884 0.904297 3.13592 0.904297C1.73299 0.904297 0.595703 1.98744 0.595703 3.32356C0.595703 4.65968 1.73299 5.74282 3.13592 5.74282Z" fill="white"/>
<path d="M7.72495 7.18034V20.6024H12.1007V13.9649C12.1007 12.2135 12.4466 10.5173 14.7268 10.5173C16.9756 10.5173 17.0035 12.5198 17.0035 14.0755V20.6035H21.3815V13.2429C21.3815 9.62725 20.5642 6.84863 16.1269 6.84863C13.9965 6.84863 12.5685 7.96207 11.9846 9.0158H11.9254V7.18034H7.72495ZM0.594238 7.18034H4.97692V20.6024H0.594238V7.18034Z" fill="white"/>
</svg>
