<svg width="25" height="25" viewBox="0 0 25 25" fill="none" xmlns="http://www.w3.org/2000/svg">
<path d="M20.5348 6.71558H4.32816C3.10761 6.71558 2.11816 7.70502 2.11816 8.92557V19.2389C2.11816 20.4594 3.10761 21.4489 4.32816 21.4489H20.5348C21.7553 21.4489 22.7448 20.4594 22.7448 19.2389V8.92557C22.7448 7.70502 21.7553 6.71558 20.5348 6.71558Z" stroke="#8495B6" stroke-width="1.96444" stroke-linejoin="round"/>
<path d="M7.27441 6.7157V5.24237C7.27441 4.85162 7.42964 4.47687 7.70594 4.20057C7.98224 3.92427 8.35699 3.76904 8.74774 3.76904H16.1144C16.5051 3.76904 16.8799 3.92427 17.1562 4.20057C17.4325 4.47687 17.5877 4.85162 17.5877 5.24237V6.7157" stroke="#8495B6" stroke-width="1.96444" stroke-linecap="round" stroke-linejoin="round"/>
<path d="M22.7448 11.8723H2.11816" stroke="#8495B6" stroke-width="1.96444" stroke-linecap="round" stroke-linejoin="round"/>
<path d="M15.3777 11.8723V12.9773C15.3777 13.075 15.3389 13.1687 15.2698 13.2378C15.2007 13.3068 15.107 13.3456 15.0094 13.3456H9.85271C9.75502 13.3456 9.66133 13.3068 9.59226 13.2378C9.52318 13.1687 9.48438 13.075 9.48438 12.9773V11.8723" stroke="#8495B6" stroke-width="1.96444" stroke-linecap="round" stroke-linejoin="round"/>
</svg>
