<svg width="25" height="25" viewBox="0 0 25 25" fill="none" xmlns="http://www.w3.org/2000/svg">
<g clip-path="url(#clip0)">
<path d="M20.6818 4.6805H18.3245V3.69828C18.3245 3.43778 18.2003 3.18795 17.9792 3.00375C17.7582 2.81955 17.4584 2.71606 17.1458 2.71606C16.8332 2.71606 16.5334 2.81955 16.3124 3.00375C16.0913 3.18795 15.9671 3.43778 15.9671 3.69828V4.6805H8.89517V3.69828C8.89517 3.43778 8.77099 3.18795 8.54994 3.00375C8.3289 2.81955 8.0291 2.71606 7.7165 2.71606C7.4039 2.71606 7.10411 2.81955 6.88306 3.00375C6.66202 3.18795 6.53784 3.43778 6.53784 3.69828V4.6805H4.18052C3.24272 4.6805 2.34332 4.99095 1.6802 5.54356C1.01707 6.09616 0.644531 6.84566 0.644531 7.62716V19.4138C0.644531 20.1953 1.01707 20.9448 1.6802 21.4974C2.34332 22.05 3.24272 22.3604 4.18052 22.3604H20.6818C21.6196 22.3604 22.519 22.05 23.1821 21.4974C23.8452 20.9448 24.2178 20.1953 24.2178 19.4138V7.62716C24.2178 6.84566 23.8452 6.09616 23.1821 5.54356C22.519 4.99095 21.6196 4.6805 20.6818 4.6805ZM21.8604 19.4138C21.8604 19.6743 21.7363 19.9241 21.5152 20.1083C21.2942 20.2925 20.9944 20.396 20.6818 20.396H4.18052C3.86792 20.396 3.56812 20.2925 3.34708 20.1083C3.12604 19.9241 3.00186 19.6743 3.00186 19.4138V12.5382H21.8604V19.4138ZM21.8604 10.5738H3.00186V7.62716C3.00186 7.36666 3.12604 7.11683 3.34708 6.93262C3.56812 6.74842 3.86792 6.64494 4.18052 6.64494H6.53784V7.62716C6.53784 7.88766 6.66202 8.13749 6.88306 8.32169C7.10411 8.50589 7.4039 8.60938 7.7165 8.60938C8.0291 8.60938 8.3289 8.50589 8.54994 8.32169C8.77099 8.13749 8.89517 7.88766 8.89517 7.62716V6.64494H15.9671V7.62716C15.9671 7.88766 16.0913 8.13749 16.3124 8.32169C16.5334 8.50589 16.8332 8.60938 17.1458 8.60938C17.4584 8.60938 17.7582 8.50589 17.9792 8.32169C18.2003 8.13749 18.3245 7.88766 18.3245 7.62716V6.64494H20.6818C20.9944 6.64494 21.2942 6.74842 21.5152 6.93262C21.7363 7.11683 21.8604 7.36666 21.8604 7.62716V10.5738Z" fill="#8495B6"/>
</g>
<defs>
<clipPath id="clip0">
<rect width="23.5732" height="23.5732" fill="white" transform="translate(0.644531 0.751221)"/>
</clipPath>
</defs>
</svg>
