<svg width="45" height="35" viewBox="0 0 45 35" fill="none" xmlns="http://www.w3.org/2000/svg">
<g clip-path="url(#clip0)">
<path d="M4.00052 31.9819C1.39753 29.1824 0 26.0426 0 20.9528C0 11.9964 6.20926 3.96895 15.2389 0L17.4956 3.52625C9.0675 8.14262 7.41978 14.1331 6.76272 17.9102C8.11981 17.1988 9.89641 16.9506 11.6376 17.1143C16.1967 17.5417 19.7903 21.3315 19.7903 26.0426C19.7903 28.4179 18.8584 30.696 17.1996 32.3757C15.5408 34.0553 13.2911 34.9989 10.9452 34.9989C9.64788 34.9874 8.36579 34.7148 7.17354 34.1968C5.98128 33.6789 4.90268 32.926 4.00052 31.9819ZM29.2723 31.9819C26.6693 29.1824 25.2717 26.0426 25.2717 20.9528C25.2717 11.9964 31.481 3.96895 40.5106 0L42.7674 3.52625C34.3392 8.14262 32.6915 14.1331 32.0345 17.9102C33.3915 17.1988 35.1681 16.9506 36.9094 17.1143C41.4684 17.5417 45.062 21.3315 45.062 26.0426C45.062 28.4179 44.1301 30.696 42.4714 32.3757C40.8126 34.0553 38.5628 34.9989 36.2169 34.9989C34.9196 34.9874 33.6375 34.7148 32.4453 34.1968C31.253 33.6789 30.1744 32.926 29.2723 31.9819Z" fill="url(#paint0_linear)"/>
</g>
<defs>
<linearGradient id="paint0_linear" x1="3.65127" y1="3.67569" x2="37.8072" y2="31.5852" gradientUnits="userSpaceOnUse">
<stop stop-color="#739EFF"/>
<stop offset="1" stop-color="#4B8EFF"/>
</linearGradient>
<clipPath id="clip0">
<rect width="45" height="35" fill="white"/>
</clipPath>
</defs>
</svg>
