<svg
  id="logo"
  width="569"
  height="109"
  viewBox="0 0 569 109"
  fill="none"
  xmlns="http://www.w3.org/2000/svg"
>
  <mask
    id="path-1-outside-1"
    maskUnits="userSpaceOnUse"
    x="0.943848"
    y="0.615967"
    width="568"
    height="108"
    fill="black"
  >
    <rect fill="white" x="0.943848" y="0.615967" width="568" height="108" />
    <path
      d="M11.8718 105C9.08785 105 6.87985 104.232 5.24785 102.696C3.71185 101.16 2.94385 99 2.94385 96.216V12.264C2.94385 9.47996 3.71185 7.31996 5.24785 5.78397C6.87985 4.24796 9.08785 3.47997 11.8718 3.47997H40.3839C56.9918 3.47997 69.8559 7.94396 78.9759 16.872C88.1919 25.704 92.7999 38.136 92.7999 54.168C92.7999 70.296 88.1919 82.824 78.9759 91.752C69.8559 100.584 56.9918 105 40.3839 105H11.8718ZM39.2318 89.88C62.5599 89.88 74.2239 77.976 74.2239 54.168C74.2239 30.456 62.5599 18.6 39.2318 18.6H21.5198V89.88H39.2318Z"
    />
    <path
      d="M126.194 105C123.41 105 121.202 104.232 119.57 102.696C118.034 101.16 117.266 99 117.266 96.216V12.264C117.266 9.47996 118.034 7.31996 119.57 5.78397C121.202 4.24796 123.41 3.47997 126.194 3.47997H178.178C180.962 3.47997 183.122 4.10397 184.658 5.35197C186.194 6.59997 186.962 8.37597 186.962 10.68C186.962 13.08 186.194 14.952 184.658 16.296C183.122 17.544 180.962 18.168 178.178 18.168H135.41V46.104H175.298C178.082 46.104 180.242 46.728 181.778 47.976C183.314 49.224 184.082 51.048 184.082 53.448C184.082 55.752 183.314 57.528 181.778 58.776C180.242 60.024 178.082 60.648 175.298 60.648H135.41V90.312H178.178C180.962 90.312 183.122 90.984 184.658 92.328C186.194 93.576 186.962 95.4 186.962 97.8C186.962 100.104 186.194 101.88 184.658 103.128C183.122 104.376 180.962 105 178.178 105H126.194Z"
    />
    <path
      d="M281.695 7.51196C283.231 4.24796 285.775 2.61597 289.327 2.61597C291.727 2.61597 293.887 3.38396 295.807 4.91996C297.727 6.45596 298.687 8.37597 298.687 10.68C298.687 11.736 298.399 12.936 297.823 14.28L257.935 100.104C257.071 101.928 255.727 103.368 253.903 104.424C252.175 105.384 250.303 105.864 248.287 105.864C246.271 105.864 244.351 105.384 242.527 104.424C240.799 103.368 239.503 101.928 238.639 100.104L198.895 14.28C198.319 12.936 198.031 11.784 198.031 10.824C198.031 8.42397 198.991 6.45596 200.911 4.91996C202.927 3.38396 205.183 2.61597 207.679 2.61597C209.311 2.61597 210.799 3.04796 212.143 3.91196C213.583 4.67997 214.687 5.87997 215.455 7.51196L248.575 81.096L281.695 7.51196Z"
    />
    <path
      d="M397.596 93.336C398.748 95.064 399.324 96.744 399.324 98.376C399.324 100.584 398.412 102.408 396.588 103.848C394.86 105.288 392.796 106.008 390.396 106.008C388.86 106.008 387.372 105.672 385.932 105C384.588 104.232 383.436 103.128 382.476 101.688L363.324 72.6C361.404 69.528 359.34 67.368 357.132 66.12C355.02 64.872 352.236 64.248 348.78 64.248H334.668V96.504C334.668 99.384 333.852 101.688 332.22 103.416C330.588 105.048 328.38 105.864 325.596 105.864C322.812 105.864 320.556 105.048 318.828 103.416C317.196 101.688 316.38 99.384 316.38 96.504V12.264C316.38 9.47996 317.148 7.31996 318.684 5.78397C320.316 4.24796 322.524 3.47997 325.308 3.47997H361.308C372.828 3.47997 381.564 6.07196 387.516 11.256C393.564 16.344 396.588 23.736 396.588 33.432C396.588 41.304 394.332 47.784 389.82 52.872C385.404 57.864 379.116 61.08 370.956 62.52C373.74 63.192 376.188 64.392 378.3 66.12C380.412 67.848 382.476 70.248 384.492 73.32L397.596 93.336ZM358.716 49.992C365.724 49.992 370.86 48.696 374.124 46.104C377.388 43.416 379.02 39.336 379.02 33.864C379.02 28.296 377.388 24.264 374.124 21.768C370.86 19.176 365.724 17.88 358.716 17.88H334.524V49.992H358.716Z"
    />
    <path
      d="M513.156 93.912C513.732 95.16 514.02 96.408 514.02 97.656C514.02 99.864 513.108 101.736 511.284 103.272C509.556 104.808 507.54 105.576 505.236 105.576C503.7 105.576 502.26 105.192 500.916 104.424C499.572 103.56 498.516 102.264 497.748 100.536L489.108 81.24H438.42L429.78 100.536C429.012 102.264 427.956 103.56 426.612 104.424C425.268 105.192 423.78 105.576 422.148 105.576C419.94 105.576 417.924 104.808 416.1 103.272C414.276 101.736 413.364 99.864 413.364 97.656C413.364 96.408 413.652 95.16 414.228 93.912L453.972 8.51997C454.836 6.59996 456.132 5.15996 457.86 4.19996C459.684 3.14396 461.604 2.61597 463.62 2.61597C465.636 2.61597 467.508 3.14396 469.236 4.19996C471.06 5.15996 472.404 6.59996 473.268 8.51997L513.156 93.912ZM444.756 66.84H482.772L463.764 24.072L444.756 66.84Z"
    />
    <path
      d="M534.716 105.864C527.324 106.152 523.628 103.608 523.628 98.232C523.628 95.928 524.252 94.2 525.5 93.048C526.652 91.8 528.524 91.08 531.116 90.888L535.724 90.6C539.66 90.408 542.636 89.16 544.652 86.856C546.668 84.552 547.676 81.048 547.676 76.344V11.976C547.676 9.19197 548.492 6.98397 550.124 5.35197C551.852 3.62397 554.108 2.75996 556.892 2.75996C559.772 2.75996 562.028 3.62397 563.66 5.35197C565.388 6.98397 566.252 9.19197 566.252 11.976V76.344C566.252 94.488 557.276 104.232 539.324 105.576L534.716 105.864Z"
    />
  </mask>
  <path
    d="M11.8718 105C9.08785 105 6.87985 104.232 5.24785 102.696C3.71185 101.16 2.94385 99 2.94385 96.216V12.264C2.94385 9.47996 3.71185 7.31996 5.24785 5.78397C6.87985 4.24796 9.08785 3.47997 11.8718 3.47997H40.3839C56.9918 3.47997 69.8559 7.94396 78.9759 16.872C88.1919 25.704 92.7999 38.136 92.7999 54.168C92.7999 70.296 88.1919 82.824 78.9759 91.752C69.8559 100.584 56.9918 105 40.3839 105H11.8718ZM39.2318 89.88C62.5599 89.88 74.2239 77.976 74.2239 54.168C74.2239 30.456 62.5599 18.6 39.2318 18.6H21.5198V89.88H39.2318Z"
    stroke="url(#paint0_linear)"
    stroke-width="4"
    mask="url(#path-1-outside-1)"
  />
  <path
    d="M126.194 105C123.41 105 121.202 104.232 119.57 102.696C118.034 101.16 117.266 99 117.266 96.216V12.264C117.266 9.47996 118.034 7.31996 119.57 5.78397C121.202 4.24796 123.41 3.47997 126.194 3.47997H178.178C180.962 3.47997 183.122 4.10397 184.658 5.35197C186.194 6.59997 186.962 8.37597 186.962 10.68C186.962 13.08 186.194 14.952 184.658 16.296C183.122 17.544 180.962 18.168 178.178 18.168H135.41V46.104H175.298C178.082 46.104 180.242 46.728 181.778 47.976C183.314 49.224 184.082 51.048 184.082 53.448C184.082 55.752 183.314 57.528 181.778 58.776C180.242 60.024 178.082 60.648 175.298 60.648H135.41V90.312H178.178C180.962 90.312 183.122 90.984 184.658 92.328C186.194 93.576 186.962 95.4 186.962 97.8C186.962 100.104 186.194 101.88 184.658 103.128C183.122 104.376 180.962 105 178.178 105H126.194Z"
    stroke="url(#paint1_linear)"
    stroke-width="4"
    mask="url(#path-1-outside-1)"
  />
  <path
    d="M281.695 7.51196C283.231 4.24796 285.775 2.61597 289.327 2.61597C291.727 2.61597 293.887 3.38396 295.807 4.91996C297.727 6.45596 298.687 8.37597 298.687 10.68C298.687 11.736 298.399 12.936 297.823 14.28L257.935 100.104C257.071 101.928 255.727 103.368 253.903 104.424C252.175 105.384 250.303 105.864 248.287 105.864C246.271 105.864 244.351 105.384 242.527 104.424C240.799 103.368 239.503 101.928 238.639 100.104L198.895 14.28C198.319 12.936 198.031 11.784 198.031 10.824C198.031 8.42397 198.991 6.45596 200.911 4.91996C202.927 3.38396 205.183 2.61597 207.679 2.61597C209.311 2.61597 210.799 3.04796 212.143 3.91196C213.583 4.67997 214.687 5.87997 215.455 7.51196L248.575 81.096L281.695 7.51196Z"
    stroke="url(#paint2_linear)"
    stroke-width="4"
    mask="url(#path-1-outside-1)"
  />
  <path
    d="M397.596 93.336C398.748 95.064 399.324 96.744 399.324 98.376C399.324 100.584 398.412 102.408 396.588 103.848C394.86 105.288 392.796 106.008 390.396 106.008C388.86 106.008 387.372 105.672 385.932 105C384.588 104.232 383.436 103.128 382.476 101.688L363.324 72.6C361.404 69.528 359.34 67.368 357.132 66.12C355.02 64.872 352.236 64.248 348.78 64.248H334.668V96.504C334.668 99.384 333.852 101.688 332.22 103.416C330.588 105.048 328.38 105.864 325.596 105.864C322.812 105.864 320.556 105.048 318.828 103.416C317.196 101.688 316.38 99.384 316.38 96.504V12.264C316.38 9.47996 317.148 7.31996 318.684 5.78397C320.316 4.24796 322.524 3.47997 325.308 3.47997H361.308C372.828 3.47997 381.564 6.07196 387.516 11.256C393.564 16.344 396.588 23.736 396.588 33.432C396.588 41.304 394.332 47.784 389.82 52.872C385.404 57.864 379.116 61.08 370.956 62.52C373.74 63.192 376.188 64.392 378.3 66.12C380.412 67.848 382.476 70.248 384.492 73.32L397.596 93.336ZM358.716 49.992C365.724 49.992 370.86 48.696 374.124 46.104C377.388 43.416 379.02 39.336 379.02 33.864C379.02 28.296 377.388 24.264 374.124 21.768C370.86 19.176 365.724 17.88 358.716 17.88H334.524V49.992H358.716Z"
    stroke="url(#paint3_linear)"
    stroke-width="4"
    mask="url(#path-1-outside-1)"
  />
  <path
    d="M513.156 93.912C513.732 95.16 514.02 96.408 514.02 97.656C514.02 99.864 513.108 101.736 511.284 103.272C509.556 104.808 507.54 105.576 505.236 105.576C503.7 105.576 502.26 105.192 500.916 104.424C499.572 103.56 498.516 102.264 497.748 100.536L489.108 81.24H438.42L429.78 100.536C429.012 102.264 427.956 103.56 426.612 104.424C425.268 105.192 423.78 105.576 422.148 105.576C419.94 105.576 417.924 104.808 416.1 103.272C414.276 101.736 413.364 99.864 413.364 97.656C413.364 96.408 413.652 95.16 414.228 93.912L453.972 8.51997C454.836 6.59996 456.132 5.15996 457.86 4.19996C459.684 3.14396 461.604 2.61597 463.62 2.61597C465.636 2.61597 467.508 3.14396 469.236 4.19996C471.06 5.15996 472.404 6.59996 473.268 8.51997L513.156 93.912ZM444.756 66.84H482.772L463.764 24.072L444.756 66.84Z"
    stroke="url(#paint4_linear)"
    stroke-width="4"
    mask="url(#path-1-outside-1)"
  />
  <path
    d="M534.716 105.864C527.324 106.152 523.628 103.608 523.628 98.232C523.628 95.928 524.252 94.2 525.5 93.048C526.652 91.8 528.524 91.08 531.116 90.888L535.724 90.6C539.66 90.408 542.636 89.16 544.652 86.856C546.668 84.552 547.676 81.048 547.676 76.344V11.976C547.676 9.19197 548.492 6.98397 550.124 5.35197C551.852 3.62397 554.108 2.75996 556.892 2.75996C559.772 2.75996 562.028 3.62397 563.66 5.35197C565.388 6.98397 566.252 9.19197 566.252 11.976V76.344C566.252 94.488 557.276 104.232 539.324 105.576L534.716 105.864Z"
    stroke="url(#paint5_linear)"
    stroke-width="4"
    mask="url(#path-1-outside-1)"
  />
  <defs>
    <linearGradient
      id="paint0_linear"
      x1="48.5874"
      y1="13.4745"
      x2="103.548"
      y2="203.513"
      gradientUnits="userSpaceOnUse"
    >
      <stop stop-color="#FF42DC" />
      <stop offset="1" stop-color="#407BFF" />
    </linearGradient>
    <linearGradient
      id="paint1_linear"
      x1="48.5874"
      y1="13.4745"
      x2="103.548"
      y2="203.513"
      gradientUnits="userSpaceOnUse"
    >
      <stop stop-color="#FF42DC" />
      <stop offset="1" stop-color="#407BFF" />
    </linearGradient>
    <linearGradient
      id="paint2_linear"
      x1="48.5874"
      y1="13.4745"
      x2="103.548"
      y2="203.513"
      gradientUnits="userSpaceOnUse"
    >
      <stop stop-color="#FF42DC" />
      <stop offset="1" stop-color="#407BFF" />
    </linearGradient>
    <linearGradient
      id="paint3_linear"
      x1="48.5874"
      y1="13.4745"
      x2="103.548"
      y2="203.513"
      gradientUnits="userSpaceOnUse"
    >
      <stop stop-color="#FF42DC" />
      <stop offset="1" stop-color="#407BFF" />
    </linearGradient>
    <linearGradient
      id="paint4_linear"
      x1="48.5874"
      y1="13.4745"
      x2="103.548"
      y2="203.513"
      gradientUnits="userSpaceOnUse"
    >
      <stop stop-color="#FF42DC" />
      <stop offset="1" stop-color="#407BFF" />
    </linearGradient>
    <linearGradient
      id="paint5_linear"
      x1="48.5874"
      y1="13.4745"
      x2="103.548"
      y2="203.513"
      gradientUnits="userSpaceOnUse"
    >
      <stop stop-color="#FF42DC" />
      <stop offset="1" stop-color="#407BFF" />
    </linearGradient>
  </defs>
</svg>
