<svg width="122" height="122" viewBox="0 0 122 122" fill="none" xmlns="http://www.w3.org/2000/svg">
<g clip-path="url(#clip0)">
<path d="M26.7749 63.6575V96.1569H59.2743L52.4966 89.3791H33.5527V70.4352L26.7749 63.6575Z" fill="url(#paint0_linear)"/>
<path d="M111.652 116.302L101.926 106.441V115.32H7.03662V101.256H13.8144V95.8335H7.03662V73.2974H13.8144V67.8752H7.03662V46.1863H13.8144V40.7641H7.03662V21.8202L61.0555 75.5341V65.9774L6.05385 11.2469C5.57984 10.7689 4.97424 10.443 4.31426 10.3106C3.65429 10.1782 2.96983 10.2453 2.34816 10.5034C1.72649 10.7616 1.19577 11.199 0.823665 11.7599C0.451561 12.3208 0.254932 12.9799 0.258846 13.653V118.709C0.258846 119.607 0.615889 120.469 1.25143 121.105C1.88697 121.74 2.74895 122.097 3.64774 122.097H109.246C109.919 122.101 110.578 121.905 111.139 121.533C111.7 121.161 112.137 120.63 112.395 120.008C112.653 119.386 112.72 118.702 112.588 118.042C112.455 117.382 112.13 116.776 111.652 116.302Z" fill="url(#paint1_linear)"/>
<path d="M77.6083 106.323H91.1639C92.9615 106.323 94.6854 105.609 95.9565 104.338C97.2276 103.067 97.9417 101.343 97.9417 99.5451V34.1396L90.1472 19.8046C89.5444 18.7602 88.6739 17.8955 87.6254 17.2998C86.577 16.7041 85.3885 16.3989 84.1828 16.4157C82.9497 16.4255 81.7427 16.7715 80.6917 17.4164C79.6407 18.0613 78.7855 18.9808 78.2183 20.0757L70.8306 34.2074V99.5451C70.8306 101.343 71.5447 103.067 72.8157 104.338C74.0868 105.609 75.8108 106.323 77.6083 106.323ZM77.6083 35.834L84.1828 23.0579L91.1639 35.8679V85.9896H77.6083V35.834ZM77.6083 91.5135H91.1639V99.7824H77.6083V91.5135Z" fill="url(#paint2_linear)"/>
</g>
<defs>
<linearGradient id="paint0_linear" x1="29.4083" y1="67.0707" x2="58.6942" y2="85.6568" gradientUnits="userSpaceOnUse">
<stop stop-color="#739EFF"/>
<stop offset="1" stop-color="#4B8EFF"/>
</linearGradient>
<linearGradient id="paint1_linear" x1="9.36592" y1="21.9915" x2="110.366" y2="86.4012" gradientUnits="userSpaceOnUse">
<stop stop-color="#739EFF"/>
<stop offset="1" stop-color="#4B8EFF"/>
</linearGradient>
<linearGradient id="paint2_linear" x1="73.0273" y1="25.8574" x2="106.087" y2="32.1841" gradientUnits="userSpaceOnUse">
<stop stop-color="#739EFF"/>
<stop offset="1" stop-color="#4B8EFF"/>
</linearGradient>
<clipPath id="clip0">
<rect width="122" height="122" fill="white"/>
</clipPath>
</defs>
</svg>
